<svg width="397" height="206" viewBox="0 0 397 206" fill="none" xmlns="http://www.w3.org/2000/svg">
<g filter="url(#filter0_b_457_1133)">
<rect x="141" width="255.817" height="162" rx="8" fill="url(#paint0_linear_457_1133)"/>
<rect x="141.25" y="0.25" width="255.317" height="161.5" rx="7.75" stroke="#404040" stroke-width="0.5"/>
</g>
<path d="M324.75 32L324.75 32.25L325.25 32.25L325.25 32L324.75 32ZM324.75 -1.09278e-08L324.75 32L325.25 32L325.25 1.09278e-08L324.75 -1.09278e-08Z" fill="#404040"/>
<path d="M141 31.75L140.75 31.75L140.75 32.25L141 32.25L141 31.75ZM141 32.25L396.817 32.25L396.817 31.75L141 31.75L141 32.25Z" fill="#404040"/>
<path d="M343.623 15.7013C343.623 16.3149 343.513 16.8452 343.291 17.2922C343.069 17.7391 342.765 18.0838 342.379 18.3263C341.993 18.5687 341.551 18.6899 341.055 18.6899C340.559 18.6899 340.118 18.5687 339.731 18.3263C339.345 18.0838 339.041 17.7391 338.819 17.2922C338.598 16.8452 338.487 16.3149 338.487 15.7013C338.487 15.0876 338.598 14.5573 338.819 14.1104C339.041 13.6634 339.345 13.3187 339.731 13.0763C340.118 12.8338 340.559 12.7126 341.055 12.7126C341.551 12.7126 341.993 12.8338 342.379 13.0763C342.765 13.3187 343.069 13.6634 343.291 14.1104C343.513 14.5573 343.623 15.0876 343.623 15.7013ZM342.942 15.7013C342.942 15.1975 342.857 14.7723 342.689 14.4257C342.522 14.0791 342.296 13.8168 342.01 13.6388C341.726 13.4607 341.407 13.3717 341.055 13.3717C340.703 13.3717 340.384 13.4607 340.098 13.6388C339.814 13.8168 339.587 14.0791 339.419 14.4257C339.252 14.7723 339.169 15.1975 339.169 15.7013C339.169 16.205 339.252 16.6302 339.419 16.9768C339.587 17.3234 339.814 17.5857 340.098 17.7638C340.384 17.9418 340.703 18.0308 341.055 18.0308C341.407 18.0308 341.726 17.9418 342.01 17.7638C342.296 17.5857 342.522 17.3234 342.689 16.9768C342.857 16.6302 342.942 16.205 342.942 15.7013ZM344.808 18.6104V12.7922H346.774C347.229 12.7922 347.602 12.8698 347.893 13.0251C348.185 13.1785 348.401 13.3897 348.541 13.6586C348.681 13.9276 348.751 14.2335 348.751 14.5763C348.751 14.9191 348.681 15.223 348.541 15.4882C348.401 15.7533 348.186 15.9617 347.896 16.1132C347.606 16.2628 347.236 16.3376 346.785 16.3376H345.194V15.7013H346.763C347.073 15.7013 347.323 15.6558 347.513 15.5649C347.704 15.474 347.842 15.3452 347.927 15.1785C348.015 15.01 348.058 14.8092 348.058 14.5763C348.058 14.3433 348.015 14.1397 347.927 13.9655C347.84 13.7912 347.701 13.6568 347.51 13.5621C347.318 13.4655 347.066 13.4172 346.751 13.4172H345.513V18.6104H344.808ZM347.547 15.9967L348.979 18.6104H348.16L346.751 15.9967H347.547ZM350.63 12.7922V18.6104H349.925V12.7922H350.63ZM356.02 14.6104C355.957 14.4191 355.875 14.2477 355.773 14.0961C355.672 13.9427 355.552 13.8121 355.412 13.7041C355.273 13.5961 355.116 13.5138 354.94 13.4569C354.764 13.4001 354.571 13.3717 354.361 13.3717C354.016 13.3717 353.702 13.4607 353.42 13.6388C353.138 13.8168 352.914 14.0791 352.747 14.4257C352.58 14.7723 352.497 15.1975 352.497 15.7013C352.497 16.205 352.581 16.6302 352.75 16.9768C352.918 17.3234 353.147 17.5857 353.434 17.7638C353.722 17.9418 354.046 18.0308 354.406 18.0308C354.739 18.0308 355.033 17.9598 355.287 17.8177C355.542 17.6738 355.741 17.4711 355.883 17.2098C356.027 16.9465 356.099 16.6369 356.099 16.2808L356.315 16.3263H354.565V15.7013H356.781V16.3263C356.781 16.8054 356.679 17.2221 356.474 17.5763C356.272 17.9304 355.991 18.205 355.633 18.4001C355.277 18.5933 354.868 18.6899 354.406 18.6899C353.891 18.6899 353.438 18.5687 353.048 18.3263C352.66 18.0838 352.357 17.7391 352.139 17.2922C351.923 16.8452 351.815 16.3149 351.815 15.7013C351.815 15.241 351.877 14.8272 352 14.4598C352.125 14.0905 352.301 13.7761 352.528 13.5166C352.756 13.2571 353.024 13.0583 353.335 12.92C353.646 12.7818 353.988 12.7126 354.361 12.7126C354.667 12.7126 354.953 12.759 355.219 12.8518C355.486 12.9427 355.723 13.0725 355.932 13.241C356.142 13.4077 356.317 13.6075 356.457 13.8405C356.597 14.0715 356.694 14.3282 356.747 14.6104H356.02ZM358.692 12.7922V18.6104H357.988V12.7922H358.692ZM364.719 12.7922V18.6104H364.037L360.866 14.0422H360.809V18.6104H360.105V12.7922H360.787L363.969 17.3717H364.025V12.7922H364.719ZM366.367 18.6104H365.628L367.765 12.7922H368.492L370.628 18.6104H369.89L368.151 13.7126H368.106L366.367 18.6104ZM366.64 16.3376H369.617V16.9626H366.64V16.3376ZM371.535 18.6104V12.7922H372.239V17.9854H374.944V18.6104H371.535Z" fill="#6C6C6C"/>
<circle cx="363.5" cy="68.5" r="12.5" fill="#6C6C6C"/>
<path d="M353.261 100.689H379V143H174.5V89V41L281.193 117.311L305.216 93.1333L339.534 111.267L353.261 100.689Z" fill="#6C6C6C"/>
<path d="M379 84.0667V100.689M379 100.689H353.261L339.534 111.267L305.216 93.1333L281.193 117.311L174.5 41V89V143H379V100.689Z" stroke="#6C6C6C" stroke-linecap="round"/>
<g filter="url(#filter1_b_457_1133)">
<rect x="79" y="47" width="199.803" height="144" rx="8" fill="url(#paint1_linear_457_1133)"/>
<rect x="79.25" y="47.25" width="199.303" height="143.5" rx="7.75" stroke="#404040" stroke-width="0.5"/>
</g>
<path d="M218.75 75L218.75 75.25L219.25 75.25L219.25 75L218.75 75ZM218.75 47L218.75 75L219.25 75L219.25 47L218.75 47Z" fill="#404040"/>
<path d="M79 74.75L78.75 74.75L78.75 75.25L79 75.25L79 74.75ZM79 75.25L278.803 75.25L278.803 74.75L79 74.75L79 75.25Z" fill="#404040"/>
<path d="M235.648 59.1818V65H234.943V59.9205H234.909L233.489 60.8636V60.1477L234.943 59.1818H235.648ZM237.185 63.8068V63.2273L239.741 59.1818H240.162V60.0795H239.878L237.946 63.1364V63.1818H241.389V63.8068H237.185ZM239.923 65V63.6307V63.3608V59.1818H240.594V65H239.923ZM242.317 63.8068V63.2273L244.874 59.1818H245.295V60.0795H245.011L243.079 63.1364V63.1818H246.522V63.8068H242.317ZM245.056 65V63.6307V63.3608V59.1818H245.727V65H245.056ZM249.484 65.0795C249.056 65.0795 248.692 64.9631 248.391 64.7301C248.089 64.4953 247.859 64.1553 247.7 63.7102C247.541 63.2633 247.462 62.7235 247.462 62.0909C247.462 61.4621 247.541 60.9252 247.7 60.4801C247.861 60.0331 248.092 59.6922 248.393 59.4574C248.696 59.2206 249.06 59.1023 249.484 59.1023C249.909 59.1023 250.271 59.2206 250.572 59.4574C250.875 59.6922 251.107 60.0331 251.266 60.4801C251.427 60.9252 251.507 61.4621 251.507 62.0909C251.507 62.7235 251.428 63.2633 251.268 63.7102C251.109 64.1553 250.879 64.4953 250.578 64.7301C250.277 64.9631 249.912 65.0795 249.484 65.0795ZM249.484 64.4545C249.909 64.4545 250.238 64.25 250.473 63.8409C250.708 63.4318 250.825 62.8485 250.825 62.0909C250.825 61.5871 250.771 61.1581 250.663 60.804C250.557 60.4498 250.404 60.1799 250.203 59.9943C250.004 59.8087 249.765 59.7159 249.484 59.7159C249.064 59.7159 248.735 59.9233 248.499 60.3381C248.262 60.7509 248.143 61.3352 248.143 62.0909C248.143 62.5947 248.196 63.0227 248.303 63.375C248.409 63.7273 248.561 63.9953 248.76 64.179C248.961 64.3627 249.202 64.4545 249.484 64.4545ZM254.939 65V59.1818H256.905C257.361 59.1818 257.734 59.2642 258.024 59.429C258.316 59.5919 258.532 59.8125 258.672 60.0909C258.812 60.3693 258.882 60.6799 258.882 61.0227C258.882 61.3655 258.812 61.6771 258.672 61.9574C258.534 62.2377 258.32 62.4612 258.03 62.6278C257.74 62.7926 257.369 62.875 256.916 62.875H255.507V62.25H256.893C257.206 62.25 257.457 62.196 257.646 62.0881C257.836 61.9801 257.973 61.8343 258.058 61.6506C258.145 61.465 258.189 61.2557 258.189 61.0227C258.189 60.7898 258.145 60.5814 258.058 60.3977C257.973 60.214 257.835 60.0701 257.643 59.9659C257.452 59.8598 257.198 59.8068 256.882 59.8068H255.643V65H254.939ZM260.358 59.1818L261.858 61.6023H261.903L263.403 59.1818H264.233L262.403 62.0909L264.233 65H263.403L261.903 62.625H261.858L260.358 65H259.528L261.403 62.0909L259.528 59.1818H260.358Z" fill="#6C6C6C"/>
<circle cx="253.766" cy="113" r="1.5" fill="#6C6C6C"/>
<circle cx="252.5" cy="116.5" r="1.5" fill="#6C6C6C"/>
<circle cx="245.5" cy="116.5" r="1.5" fill="#6C6C6C"/>
<circle cx="245.5" cy="109.5" r="1.5" fill="#6C6C6C"/>
<circle cx="252.5" cy="109.5" r="1.5" fill="#6C6C6C"/>
<circle cx="255.865" cy="154" r="1.5" fill="#6C6C6C"/>
<circle cx="221.865" cy="154" r="1.5" fill="#6C6C6C"/>
<circle cx="239.865" cy="135" r="1.5" fill="#6C6C6C"/>
<circle cx="238.865" cy="172" r="1.5" fill="#6C6C6C"/>
<circle cx="237.865" cy="154" r="1.5" fill="#6C6C6C"/>
<circle cx="203.865" cy="154" r="1.5" fill="#6C6C6C"/>
<circle cx="221.865" cy="136" r="1.5" fill="#6C6C6C"/>
<circle cx="220.865" cy="172" r="1.5" fill="#6C6C6C"/>
<circle cx="247.865" cy="145" r="1.5" fill="#6C6C6C"/>
<circle cx="212.865" cy="145" r="1.5" fill="#6C6C6C"/>
<circle cx="230.865" cy="126" r="1.5" fill="#6C6C6C"/>
<circle cx="179.865" cy="113" r="1.5" fill="#6C6C6C"/>
<circle cx="194.865" cy="113" r="1.5" fill="#6C6C6C"/>
<circle cx="187.865" cy="104" r="1.5" fill="#6C6C6C"/>
<circle cx="187.865" cy="122" r="1.5" fill="#6C6C6C"/>
<circle cx="229.865" cy="163" r="1.5" fill="#6C6C6C"/>
<circle cx="246.865" cy="163" r="1.5" fill="#6C6C6C"/>
<circle cx="212.865" cy="163" r="1.5" fill="#6C6C6C"/>
<circle cx="230.865" cy="144" r="1.5" fill="#6C6C6C"/>
<circle cx="229.865" cy="181" r="1.5" fill="#6C6C6C"/>
<circle cx="249.084" cy="113" r="1.5" fill="#6C6C6C"/>
<circle cx="251.184" cy="154" r="1.5" fill="#6C6C6C"/>
<circle cx="217.184" cy="154" r="1.5" fill="#6C6C6C"/>
<circle cx="235.184" cy="135" r="1.5" fill="#6C6C6C"/>
<circle cx="234.184" cy="172" r="1.5" fill="#6C6C6C"/>
<circle cx="233.184" cy="154" r="1.5" fill="#6C6C6C"/>
<circle cx="199.184" cy="154" r="1.5" fill="#6C6C6C"/>
<circle cx="217.184" cy="136" r="1.5" fill="#6C6C6C"/>
<circle cx="216.184" cy="172" r="1.5" fill="#6C6C6C"/>
<circle cx="243.184" cy="145" r="1.5" fill="#6C6C6C"/>
<circle cx="208.184" cy="145" r="1.5" fill="#6C6C6C"/>
<circle cx="226.184" cy="126" r="1.5" fill="#6C6C6C"/>
<circle cx="175.184" cy="113" r="1.5" fill="#6C6C6C"/>
<circle cx="190.184" cy="113" r="1.5" fill="#6C6C6C"/>
<circle cx="183.184" cy="104" r="1.5" fill="#6C6C6C"/>
<circle cx="183.184" cy="122" r="1.5" fill="#6C6C6C"/>
<circle cx="225.184" cy="163" r="1.5" fill="#6C6C6C"/>
<circle cx="242.184" cy="163" r="1.5" fill="#6C6C6C"/>
<circle cx="208.184" cy="163" r="1.5" fill="#6C6C6C"/>
<circle cx="226.184" cy="144" r="1.5" fill="#6C6C6C"/>
<circle cx="225.184" cy="181" r="1.5" fill="#6C6C6C"/>
<circle cx="244.4" cy="113" r="1.5" fill="#6C6C6C"/>
<circle cx="246.5" cy="154" r="1.5" fill="#6C6C6C"/>
<circle cx="212.5" cy="154" r="1.5" fill="#6C6C6C"/>
<circle cx="230.5" cy="135" r="1.5" fill="#6C6C6C"/>
<circle cx="229.5" cy="172" r="1.5" fill="#6C6C6C"/>
<circle cx="228.5" cy="154" r="1.5" fill="#6C6C6C"/>
<circle cx="194.5" cy="154" r="1.5" fill="#6C6C6C"/>
<circle cx="212.5" cy="136" r="1.5" fill="#6C6C6C"/>
<circle cx="211.5" cy="172" r="1.5" fill="#6C6C6C"/>
<circle cx="238.5" cy="145" r="1.5" fill="#6C6C6C"/>
<circle cx="203.5" cy="145" r="1.5" fill="#6C6C6C"/>
<circle cx="221.5" cy="126" r="1.5" fill="#6C6C6C"/>
<circle cx="170.5" cy="113" r="1.5" fill="#6C6C6C"/>
<circle cx="185.5" cy="113" r="1.5" fill="#6C6C6C"/>
<circle cx="178.5" cy="104" r="1.5" fill="#6C6C6C"/>
<circle cx="178.5" cy="122" r="1.5" fill="#6C6C6C"/>
<circle cx="220.5" cy="163" r="1.5" fill="#6C6C6C"/>
<circle cx="237.5" cy="163" r="1.5" fill="#6C6C6C"/>
<circle cx="203.5" cy="163" r="1.5" fill="#6C6C6C"/>
<circle cx="221.5" cy="144" r="1.5" fill="#6C6C6C"/>
<circle cx="220.5" cy="181" r="1.5" fill="#6C6C6C"/>
<circle cx="249.084" cy="108.5" r="1.5" fill="#6C6C6C"/>
<circle cx="251.184" cy="149.5" r="1.5" fill="#6C6C6C"/>
<circle cx="217.184" cy="149.5" r="1.5" fill="#6C6C6C"/>
<circle cx="235.184" cy="130.5" r="1.5" fill="#6C6C6C"/>
<circle cx="234.184" cy="167.5" r="1.5" fill="#6C6C6C"/>
<circle cx="233.184" cy="149.5" r="1.5" fill="#6C6C6C"/>
<circle cx="199.184" cy="149.5" r="1.5" fill="#6C6C6C"/>
<circle cx="217.184" cy="131.5" r="1.5" fill="#6C6C6C"/>
<circle cx="216.184" cy="167.5" r="1.5" fill="#6C6C6C"/>
<circle cx="243.184" cy="140.5" r="1.5" fill="#6C6C6C"/>
<circle cx="208.184" cy="140.5" r="1.5" fill="#6C6C6C"/>
<circle cx="226.184" cy="121.5" r="1.5" fill="#6C6C6C"/>
<circle cx="175.184" cy="108.5" r="1.5" fill="#6C6C6C"/>
<circle cx="190.184" cy="108.5" r="1.5" fill="#6C6C6C"/>
<circle cx="183.184" cy="99.5" r="1.5" fill="#6C6C6C"/>
<circle cx="183.184" cy="117.5" r="1.5" fill="#6C6C6C"/>
<circle cx="225.184" cy="158.5" r="1.5" fill="#6C6C6C"/>
<circle cx="242.184" cy="158.5" r="1.5" fill="#6C6C6C"/>
<circle cx="208.184" cy="158.5" r="1.5" fill="#6C6C6C"/>
<circle cx="226.184" cy="139.5" r="1.5" fill="#6C6C6C"/>
<circle cx="225.184" cy="176.5" r="1.5" fill="#6C6C6C"/>
<circle cx="249.084" cy="117.5" r="1.5" fill="#6C6C6C"/>
<circle cx="251.184" cy="158.5" r="1.5" fill="#6C6C6C"/>
<circle cx="217.184" cy="158.5" r="1.5" fill="#6C6C6C"/>
<circle cx="235.184" cy="139.5" r="1.5" fill="#6C6C6C"/>
<circle cx="234.184" cy="176.5" r="1.5" fill="#6C6C6C"/>
<circle cx="233.184" cy="158.5" r="1.5" fill="#6C6C6C"/>
<circle cx="199.184" cy="158.5" r="1.5" fill="#6C6C6C"/>
<circle cx="217.184" cy="140.5" r="1.5" fill="#6C6C6C"/>
<circle cx="216.184" cy="176.5" r="1.5" fill="#6C6C6C"/>
<circle cx="243.184" cy="149.5" r="1.5" fill="#6C6C6C"/>
<circle cx="208.184" cy="149.5" r="1.5" fill="#6C6C6C"/>
<circle cx="226.184" cy="130.5" r="1.5" fill="#6C6C6C"/>
<circle cx="175.184" cy="117.5" r="1.5" fill="#6C6C6C"/>
<circle cx="190.184" cy="117.5" r="1.5" fill="#6C6C6C"/>
<circle cx="183.184" cy="108.5" r="1.5" fill="#6C6C6C"/>
<circle cx="183.184" cy="126.5" r="1.5" fill="#6C6C6C"/>
<circle cx="225.184" cy="167.5" r="1.5" fill="#6C6C6C"/>
<circle cx="242.184" cy="167.5" r="1.5" fill="#6C6C6C"/>
<circle cx="208.184" cy="167.5" r="1.5" fill="#6C6C6C"/>
<circle cx="226.184" cy="148.5" r="1.5" fill="#6C6C6C"/>
<circle cx="225.184" cy="185.5" r="1.5" fill="#6C6C6C"/>
<g filter="url(#filter2_b_457_1133)">
<rect x="1" y="106" width="148.6" height="100" rx="8" fill="url(#paint2_linear_457_1133)"/>
<rect x="1.25" y="106.25" width="148.1" height="99.5" rx="7.75" stroke="#404040" stroke-width="0.5"/>
</g>
<path d="M95.75 128L95.75 128.25L96.25 128.25L96.25 128L95.75 128ZM95.75 106L95.75 128L96.25 128L96.25 106L95.75 106Z" fill="#404040"/>
<path d="M1 127.75L0.75 127.75L0.75 128.25L1 128.25L1 127.75ZM1 128.25L150 128.25L150 127.75L1 127.75L1 128.25Z" fill="#404040"/>
<path d="M109.568 121.08C109.193 121.08 108.859 121.015 108.565 120.886C108.274 120.758 108.042 120.579 107.869 120.349C107.699 120.118 107.606 119.85 107.591 119.545H108.307C108.322 119.733 108.386 119.895 108.5 120.031C108.614 120.166 108.762 120.27 108.946 120.344C109.13 120.418 109.333 120.455 109.557 120.455C109.807 120.455 110.028 120.411 110.222 120.324C110.415 120.237 110.566 120.116 110.676 119.96C110.786 119.805 110.841 119.625 110.841 119.42C110.841 119.206 110.788 119.018 110.682 118.855C110.576 118.69 110.42 118.562 110.216 118.469C110.011 118.376 109.761 118.33 109.466 118.33H109V117.705H109.466C109.697 117.705 109.9 117.663 110.074 117.58C110.25 117.496 110.387 117.379 110.486 117.227C110.586 117.076 110.636 116.898 110.636 116.693C110.636 116.496 110.593 116.325 110.506 116.179C110.419 116.033 110.295 115.92 110.136 115.838C109.979 115.757 109.794 115.716 109.58 115.716C109.379 115.716 109.189 115.753 109.011 115.827C108.835 115.899 108.691 116.004 108.58 116.142C108.468 116.278 108.407 116.443 108.398 116.636H107.716C107.727 116.331 107.819 116.064 107.991 115.835C108.164 115.604 108.389 115.424 108.668 115.295C108.948 115.167 109.256 115.102 109.591 115.102C109.951 115.102 110.259 115.175 110.517 115.321C110.775 115.465 110.973 115.655 111.111 115.892C111.249 116.129 111.318 116.384 111.318 116.659C111.318 116.987 111.232 117.266 111.06 117.497C110.889 117.728 110.657 117.888 110.364 117.977V118.023C110.731 118.083 111.018 118.24 111.224 118.491C111.431 118.741 111.534 119.051 111.534 119.42C111.534 119.737 111.448 120.021 111.276 120.273C111.105 120.523 110.872 120.72 110.577 120.864C110.281 121.008 109.945 121.08 109.568 121.08ZM112.878 121L115.48 115.852V115.807H112.48V115.182H116.207V115.841L113.616 121H112.878ZM119.006 121.08C118.673 121.08 118.373 121.013 118.106 120.881C117.839 120.748 117.625 120.566 117.464 120.335C117.303 120.104 117.215 119.841 117.2 119.545H117.881C117.908 119.809 118.027 120.027 118.239 120.199C118.453 120.369 118.709 120.455 119.006 120.455C119.245 120.455 119.457 120.399 119.643 120.287C119.83 120.175 119.977 120.022 120.083 119.827C120.191 119.63 120.245 119.407 120.245 119.159C120.245 118.905 120.189 118.679 120.077 118.48C119.968 118.279 119.816 118.121 119.623 118.006C119.43 117.89 119.209 117.831 118.961 117.83C118.783 117.828 118.6 117.855 118.413 117.912C118.225 117.967 118.071 118.038 117.95 118.125L117.29 118.045L117.643 115.182H120.665V115.807H118.234L118.029 117.523H118.063C118.183 117.428 118.332 117.349 118.512 117.287C118.692 117.224 118.879 117.193 119.075 117.193C119.431 117.193 119.748 117.278 120.026 117.449C120.307 117.617 120.526 117.848 120.685 118.142C120.846 118.436 120.927 118.771 120.927 119.148C120.927 119.519 120.844 119.85 120.677 120.142C120.512 120.432 120.285 120.661 119.995 120.83C119.705 120.996 119.376 121.08 119.006 121.08ZM124.408 121V115.182H126.374C126.83 115.182 127.203 115.264 127.493 115.429C127.785 115.592 128 115.812 128.141 116.091C128.281 116.369 128.351 116.68 128.351 117.023C128.351 117.366 128.281 117.677 128.141 117.957C128.002 118.238 127.788 118.461 127.499 118.628C127.209 118.793 126.838 118.875 126.385 118.875H124.976V118.25H126.362C126.675 118.25 126.926 118.196 127.115 118.088C127.304 117.98 127.442 117.834 127.527 117.651C127.614 117.465 127.658 117.256 127.658 117.023C127.658 116.79 127.614 116.581 127.527 116.398C127.442 116.214 127.304 116.07 127.112 115.966C126.921 115.86 126.667 115.807 126.351 115.807H125.112V121H124.408ZM129.827 115.182L131.327 117.602H131.372L132.872 115.182H133.702L131.872 118.091L133.702 121H132.872L131.372 118.625H131.327L129.827 121H128.997L130.872 118.091L128.997 115.182H129.827Z" fill="#6C6C6C"/>
<circle cx="133.5" cy="151.5" r="1.5" fill="#6C6C6C"/>
<circle cx="133.5" cy="169.5" r="1.5" fill="#6C6C6C"/>
<circle cx="110.5" cy="184.5" r="1.5" fill="#6C6C6C"/>
<circle cx="128.5" cy="151.5" r="1.5" fill="#6C6C6C"/>
<circle cx="128.5" cy="169.5" r="1.5" fill="#6C6C6C"/>
<circle cx="105.5" cy="184.5" r="1.5" fill="#6C6C6C"/>
<circle cx="123.5" cy="151.5" r="1.5" fill="#6C6C6C"/>
<circle cx="123.5" cy="169.5" r="1.5" fill="#6C6C6C"/>
<circle cx="100.5" cy="184.5" r="1.5" fill="#6C6C6C"/>
<circle cx="92.5" cy="184.5" r="1.5" fill="#6C6C6C"/>
<circle cx="92.5" cy="175.5" r="1.5" fill="#6C6C6C"/>
<circle cx="92.5" cy="166.5" r="1.5" fill="#6C6C6C"/>
<circle cx="82.5" cy="184.5" r="1.5" fill="#6C6C6C"/>
<circle cx="82.5" cy="175.5" r="1.5" fill="#6C6C6C"/>
<circle cx="82.5" cy="166.5" r="1.5" fill="#6C6C6C"/>
<circle cx="72.5" cy="184.5" r="1.5" fill="#6C6C6C"/>
<circle cx="72.5" cy="175.5" r="1.5" fill="#6C6C6C"/>
<circle cx="72.5" cy="166.5" r="1.5" fill="#6C6C6C"/>
<circle cx="62.5" cy="184.5" r="1.5" fill="#6C6C6C"/>
<circle cx="62.5" cy="175.5" r="1.5" fill="#6C6C6C"/>
<circle cx="62.5" cy="166.5" r="1.5" fill="#6C6C6C"/>
<circle cx="52.5" cy="184.5" r="1.5" fill="#6C6C6C"/>
<circle cx="52.5" cy="175.5" r="1.5" fill="#6C6C6C"/>
<circle cx="52.5" cy="166.5" r="1.5" fill="#6C6C6C"/>
<circle cx="42.5" cy="184.5" r="1.5" fill="#6C6C6C"/>
<circle cx="42.5" cy="175.5" r="1.5" fill="#6C6C6C"/>
<circle cx="42.5" cy="166.5" r="1.5" fill="#6C6C6C"/>
<circle cx="87.5" cy="184.5" r="1.5" fill="#6C6C6C"/>
<circle cx="87.5" cy="175.5" r="1.5" fill="#6C6C6C"/>
<circle cx="87.5" cy="166.5" r="1.5" fill="#6C6C6C"/>
<circle cx="77.5" cy="184.5" r="1.5" fill="#6C6C6C"/>
<circle cx="77.5" cy="175.5" r="1.5" fill="#6C6C6C"/>
<circle cx="77.5" cy="166.5" r="1.5" fill="#6C6C6C"/>
<circle cx="67.5" cy="184.5" r="1.5" fill="#6C6C6C"/>
<circle cx="67.5" cy="175.5" r="1.5" fill="#6C6C6C"/>
<circle cx="67.5" cy="166.5" r="1.5" fill="#6C6C6C"/>
<circle cx="57.5" cy="184.5" r="1.5" fill="#6C6C6C"/>
<circle cx="57.5" cy="175.5" r="1.5" fill="#6C6C6C"/>
<circle cx="57.5" cy="166.5" r="1.5" fill="#6C6C6C"/>
<circle cx="47.5" cy="184.5" r="1.5" fill="#6C6C6C"/>
<circle cx="47.5" cy="175.5" r="1.5" fill="#6C6C6C"/>
<circle cx="47.5" cy="166.5" r="1.5" fill="#6C6C6C"/>
<circle cx="37.5" cy="184.5" r="1.5" fill="#6C6C6C"/>
<circle cx="37.5" cy="175.5" r="1.5" fill="#6C6C6C"/>
<circle cx="37.5" cy="166.5" r="1.5" fill="#6C6C6C"/>
<circle cx="92.5" cy="180.5" r="1.5" fill="#6C6C6C"/>
<circle cx="92.5" cy="171.5" r="1.5" fill="#6C6C6C"/>
<circle cx="92.5" cy="162.5" r="1.5" fill="#6C6C6C"/>
<circle cx="82.5" cy="180.5" r="1.5" fill="#6C6C6C"/>
<circle cx="82.5" cy="171.5" r="1.5" fill="#6C6C6C"/>
<circle cx="82.5" cy="162.5" r="1.5" fill="#6C6C6C"/>
<circle cx="72.5" cy="180.5" r="1.5" fill="#6C6C6C"/>
<circle cx="72.5" cy="171.5" r="1.5" fill="#6C6C6C"/>
<circle cx="72.5" cy="162.5" r="1.5" fill="#6C6C6C"/>
<circle cx="62.5" cy="180.5" r="1.5" fill="#6C6C6C"/>
<circle cx="62.5" cy="171.5" r="1.5" fill="#6C6C6C"/>
<circle cx="62.5" cy="162.5" r="1.5" fill="#6C6C6C"/>
<circle cx="52.5" cy="180.5" r="1.5" fill="#6C6C6C"/>
<circle cx="52.5" cy="171.5" r="1.5" fill="#6C6C6C"/>
<circle cx="52.5" cy="162.5" r="1.5" fill="#6C6C6C"/>
<circle cx="42.5" cy="180.5" r="1.5" fill="#6C6C6C"/>
<circle cx="42.5" cy="171.5" r="1.5" fill="#6C6C6C"/>
<circle cx="42.5" cy="162.5" r="1.5" fill="#6C6C6C"/>
<circle cx="87.5" cy="180.5" r="1.5" fill="#6C6C6C"/>
<circle cx="87.5" cy="171.5" r="1.5" fill="#6C6C6C"/>
<circle cx="87.5" cy="162.5" r="1.5" fill="#6C6C6C"/>
<circle cx="77.5" cy="180.5" r="1.5" fill="#6C6C6C"/>
<circle cx="77.5" cy="171.5" r="1.5" fill="#6C6C6C"/>
<circle cx="77.5" cy="162.5" r="1.5" fill="#6C6C6C"/>
<circle cx="67.5" cy="180.5" r="1.5" fill="#6C6C6C"/>
<circle cx="67.5" cy="171.5" r="1.5" fill="#6C6C6C"/>
<circle cx="67.5" cy="162.5" r="1.5" fill="#6C6C6C"/>
<circle cx="57.5" cy="180.5" r="1.5" fill="#6C6C6C"/>
<circle cx="57.5" cy="171.5" r="1.5" fill="#6C6C6C"/>
<circle cx="57.5" cy="162.5" r="1.5" fill="#6C6C6C"/>
<circle cx="47.5" cy="180.5" r="1.5" fill="#6C6C6C"/>
<circle cx="47.5" cy="171.5" r="1.5" fill="#6C6C6C"/>
<circle cx="47.5" cy="162.5" r="1.5" fill="#6C6C6C"/>
<circle cx="37.5" cy="180.5" r="1.5" fill="#6C6C6C"/>
<circle cx="37.5" cy="171.5" r="1.5" fill="#6C6C6C"/>
<circle cx="37.5" cy="162.5" r="1.5" fill="#6C6C6C"/>
<circle cx="128.5" cy="146.5" r="1.5" fill="#6C6C6C"/>
<circle cx="128.5" cy="164.5" r="1.5" fill="#6C6C6C"/>
<circle cx="105.5" cy="179.5" r="1.5" fill="#6C6C6C"/>
<circle cx="132.5" cy="165.5" r="1.5" fill="#6C6C6C"/>
<circle cx="109.5" cy="180.5" r="1.5" fill="#6C6C6C"/>
<circle cx="132.5" cy="173.5" r="1.5" fill="#6C6C6C"/>
<circle cx="109.5" cy="188.5" r="1.5" fill="#6C6C6C"/>
<circle cx="124.5" cy="173.5" r="1.5" fill="#6C6C6C"/>
<circle cx="101.5" cy="188.5" r="1.5" fill="#6C6C6C"/>
<circle cx="124.5" cy="165.5" r="1.5" fill="#6C6C6C"/>
<circle cx="101.5" cy="180.5" r="1.5" fill="#6C6C6C"/>
<circle cx="128.5" cy="156.5" r="1.5" fill="#6C6C6C"/>
<circle cx="128.5" cy="174.5" r="1.5" fill="#6C6C6C"/>
<circle cx="105.5" cy="189.5" r="1.5" fill="#6C6C6C"/>
<defs>
<filter id="filter0_b_457_1133" x="127" y="-14" width="283.816" height="190" filterUnits="userSpaceOnUse" color-interpolation-filters="sRGB">
<feFlood flood-opacity="0" result="BackgroundImageFix"/>
<feGaussianBlur in="BackgroundImageFix" stdDeviation="7"/>
<feComposite in2="SourceAlpha" operator="in" result="effect1_backgroundBlur_457_1133"/>
<feBlend mode="normal" in="SourceGraphic" in2="effect1_backgroundBlur_457_1133" result="shape"/>
</filter>
<filter id="filter1_b_457_1133" x="67" y="35" width="223.803" height="168" filterUnits="userSpaceOnUse" color-interpolation-filters="sRGB">
<feFlood flood-opacity="0" result="BackgroundImageFix"/>
<feGaussianBlur in="BackgroundImageFix" stdDeviation="6"/>
<feComposite in2="SourceAlpha" operator="in" result="effect1_backgroundBlur_457_1133"/>
<feBlend mode="normal" in="SourceGraphic" in2="effect1_backgroundBlur_457_1133" result="shape"/>
</filter>
<filter id="filter2_b_457_1133" x="-3" y="102" width="156.601" height="108" filterUnits="userSpaceOnUse" color-interpolation-filters="sRGB">
<feFlood flood-opacity="0" result="BackgroundImageFix"/>
<feGaussianBlur in="BackgroundImageFix" stdDeviation="2"/>
<feComposite in2="SourceAlpha" operator="in" result="effect1_backgroundBlur_457_1133"/>
<feBlend mode="normal" in="SourceGraphic" in2="effect1_backgroundBlur_457_1133" result="shape"/>
</filter>
<linearGradient id="paint0_linear_457_1133" x1="141" y1="0" x2="387.607" y2="175.879" gradientUnits="userSpaceOnUse">
<stop stop-color="#1E1E1E"/>
<stop offset="1" stop-color="#1E1E1E" stop-opacity="0"/>
</linearGradient>
<linearGradient id="paint1_linear_457_1133" x1="79" y1="47" x2="287.644" y2="177.749" gradientUnits="userSpaceOnUse">
<stop stop-color="#1E1E1E"/>
<stop offset="1" stop-color="#1E1E1E" stop-opacity="0.44"/>
</linearGradient>
<linearGradient id="paint2_linear_457_1133" x1="1" y1="106" x2="150" y2="206" gradientUnits="userSpaceOnUse">
<stop stop-color="#1E1E1E"/>
<stop offset="1" stop-color="#1E1E1E" stop-opacity="0.44"/>
</linearGradient>
</defs>
</svg>
