<svg width="1512" height="81" viewBox="0 0 1512 81" fill="none" xmlns="http://www.w3.org/2000/svg">
<path d="M168 0.5H148.615V57.4106H168V0.5Z" fill="url(#paint0_linear_798_5600)"/>
<path d="M187.692 0.5H178V57.4106H187.692V0.5Z" fill="url(#paint1_linear_798_5600)"/>
<path d="M207.385 0.5H197.692V57.4106H207.385V0.5Z" fill="url(#paint2_linear_798_5600)"/>
<path d="M227.077 0.5H217.385V57.4106H227.077V0.5Z" fill="url(#paint3_linear_798_5600)"/>
<path d="M266.154 0.5H237.077V57.4106H266.154V0.5Z" fill="url(#paint4_linear_798_5600)"/>
<path d="M295.539 0.5H276.154V57.4106H295.539V0.5Z" fill="url(#paint5_linear_798_5600)"/>
<path d="M315.23 0.5H305.538V57.4106H315.23V0.5Z" fill="url(#paint6_linear_798_5600)"/>
<path d="M364 0.5H325.23V57.4106H364V0.5Z" fill="url(#paint7_linear_798_5600)"/>
<path d="M383.692 0.5H374V57.4106H383.692V0.5Z" fill="url(#paint8_linear_798_5600)"/>
<path d="M403.385 0.5H393.692V57.4106H403.385V0.5Z" fill="url(#paint9_linear_798_5600)"/>
<path d="M423.077 0.5H413.385V57.4106H423.077V0.5Z" fill="url(#paint10_linear_798_5600)"/>
<path d="M452.462 0.5H433.077V57.4106H452.462V0.5Z" fill="url(#paint11_linear_798_5600)"/>
<path d="M501.231 0.5H462.462V57.4106H501.231V0.5Z" fill="url(#paint12_linear_798_5600)"/>
<path d="M540.307 0.5H511.23V57.4106H540.307V0.5Z" fill="url(#paint13_linear_798_5600)"/>
<path d="M560 0.5H550.308V57.4106H560V0.5Z" fill="url(#paint14_linear_798_5600)"/>
<path d="M579.692 0.5H570V57.4106H579.692V0.5Z" fill="url(#paint15_linear_798_5600)"/>
<path d="M599.385 0.5H589.692V57.4106H599.385V0.5Z" fill="url(#paint16_linear_798_5600)"/>
<path d="M628.769 0.5H609.385V57.4106H628.769V0.5Z" fill="url(#paint17_linear_798_5600)"/>
<path d="M677.539 0.5H638.77V57.4106H677.539V0.5Z" fill="url(#paint18_linear_798_5600)"/>
<path d="M716.615 0.5H687.538V57.4106H716.615V0.5Z" fill="url(#paint19_linear_798_5600)"/>
<path d="M736.308 0.5H726.615V57.4106H736.308V0.5Z" fill="url(#paint20_linear_798_5600)"/>
<path d="M756 0.5H746.308V57.4106H756V0.5Z" fill="url(#paint21_linear_798_5600)"/>
<path d="M775.692 0.5H766V57.4106H775.692V0.5Z" fill="url(#paint22_linear_798_5600)"/>
<path d="M824.462 0.5H785.692V57.4106H824.462V0.5Z" fill="url(#paint23_linear_798_5600)"/>
<path d="M844.154 0.5H834.462V57.4106H844.154V0.5Z" fill="url(#paint24_linear_798_5600)"/>
<path d="M873.539 0.5H854.154V57.4106H873.539V0.5Z" fill="url(#paint25_linear_798_5600)"/>
<path d="M912.616 0.5H883.539V57.4106H912.616V0.5Z" fill="url(#paint26_linear_798_5600)"/>
<path d="M932.308 0.5H922.615V57.4106H932.308V0.5Z" fill="url(#paint27_linear_798_5600)"/>
<path d="M961.692 0.5H942.308V57.4106H961.692V0.5Z" fill="url(#paint28_linear_798_5600)"/>
<path d="M981.385 0.5H971.692V57.4106H981.385V0.5Z" fill="url(#paint29_linear_798_5600)"/>
<path d="M1001.08 0.5H991.385V57.4106H1001.08V0.5Z" fill="url(#paint30_linear_798_5600)"/>
<path d="M1049.85 0.5H1011.08V57.4106H1049.85V0.5Z" fill="url(#paint31_linear_798_5600)"/>
<path d="M1069.54 0.5H1059.85V57.4106H1069.54V0.5Z" fill="url(#paint32_linear_798_5600)"/>
<path d="M1118.31 0.5H1079.54V57.4106H1118.31V0.5Z" fill="url(#paint33_linear_798_5600)"/>
<path d="M1138 0.5H1128.31V57.4106H1138V0.5Z" fill="url(#paint34_linear_798_5600)"/>
<path d="M1157.69 0.5H1148V57.4106H1157.69V0.5Z" fill="url(#paint35_linear_798_5600)"/>
<path d="M1187.08 0.5H1167.69V57.4106H1187.08V0.5Z" fill="url(#paint36_linear_798_5600)"/>
<path d="M1226.15 0.5H1197.08V57.4106H1226.15V0.5Z" fill="url(#paint37_linear_798_5600)"/>
<path d="M1245.85 0.5H1236.15V57.4106H1245.85V0.5Z" fill="url(#paint38_linear_798_5600)"/>
<path d="M1275.23 0.5H1255.85V57.4106H1275.23V0.5Z" fill="url(#paint39_linear_798_5600)"/>
<path d="M1314.31 0.5H1285.23V57.4106H1314.31V0.5Z" fill="url(#paint40_linear_798_5600)"/>
<path d="M1334 0.5H1324.31V57.4106H1334V0.5Z" fill="url(#paint41_linear_798_5600)"/>
<path d="M1363.38 0.5H1344V57.4106H1363.38V0.5Z" fill="url(#paint42_linear_798_5600)"/>
<path d="M710.419 71.1641H712.354L714.945 77.4879H715.047L717.638 71.1641H719.573V79.8914H718.056V73.8956H717.975L715.563 79.8658H714.429L712.017 73.8828H711.936V79.8914H710.419V71.1641ZM726.796 71.1641H728.377V76.8658C728.377 77.4908 728.229 78.0405 727.934 78.5149C727.641 78.9894 727.229 79.3601 726.698 79.6272C726.167 79.8914 725.546 80.0235 724.836 80.0235C724.122 80.0235 723.5 79.8914 722.969 79.6272C722.438 79.3601 722.026 78.9894 721.733 78.5149C721.441 78.0405 721.294 77.4908 721.294 76.8658V71.1641H722.875V76.7337C722.875 77.0973 722.955 77.4212 723.114 77.7053C723.276 77.9894 723.503 78.2124 723.796 78.3743C724.088 78.5334 724.435 78.6129 724.836 78.6129C725.236 78.6129 725.583 78.5334 725.875 78.3743C726.171 78.2124 726.398 77.9894 726.557 77.7053C726.716 77.4212 726.796 77.0973 726.796 76.7337V71.1641ZM731.216 79.8914H729.528L732.601 71.1641H734.553L737.629 79.8914H735.942L733.611 72.9539H733.543L731.216 79.8914ZM731.271 76.4695H735.874V77.7394H731.271V76.4695ZM738.779 71.1641H740.713L743.304 77.4879H743.407L745.997 71.1641H747.932V79.8914H746.415V73.8956H746.334L743.922 79.8658H742.789L740.377 73.8828H740.296V79.8914H738.779V71.1641ZM749.654 71.1641H751.588L754.179 77.4879H754.282L756.872 71.1641H758.807V79.8914H757.29V73.8956H757.209L754.797 79.8658H753.664L751.252 73.8828H751.171V79.8914H749.654V71.1641ZM761.649 79.8914H759.962L763.034 71.1641H764.986L768.063 79.8914H766.375L764.044 72.9539H763.976L761.649 79.8914ZM761.705 76.4695H766.307V77.7394H761.705V76.4695ZM769.212 79.8914V71.1641H772.485C773.156 71.1641 773.718 71.2806 774.173 71.5135C774.63 71.7465 774.975 72.0732 775.208 72.4936C775.444 72.9112 775.562 73.3985 775.562 73.9553C775.562 74.5149 775.442 75.0007 775.204 75.4127C774.968 75.8218 774.62 76.1385 774.16 76.3629C773.7 76.5845 773.134 76.6953 772.464 76.6953H770.133V75.3828H772.251C772.643 75.3828 772.964 75.3289 773.214 75.2209C773.464 75.1101 773.648 74.9496 773.768 74.7394C773.89 74.5263 773.951 74.2649 773.951 73.9553C773.951 73.6456 773.89 73.3814 773.768 73.1627C773.646 72.9411 773.46 72.7735 773.21 72.6598C772.96 72.5433 772.637 72.4851 772.242 72.4851H770.793V79.8914H769.212ZM773.721 75.9368L775.881 79.8914H774.117L771.995 75.9368H773.721ZM777.899 79.9851C777.641 79.9851 777.419 79.8942 777.234 79.7124C777.05 79.5306 776.959 79.309 776.962 79.0476C776.959 78.7919 777.05 78.5732 777.234 78.3914C777.419 78.2095 777.641 78.1186 777.899 78.1186C778.149 78.1186 778.366 78.2095 778.551 78.3914C778.739 78.5732 778.834 78.7919 778.837 79.0476C778.834 79.2209 778.788 79.3786 778.7 79.5206C778.615 79.6627 778.501 79.7763 778.359 79.8615C778.22 79.9439 778.067 79.9851 777.899 79.9851ZM783.941 71.1641H785.509V77.3004C785.506 77.8629 785.387 78.3473 785.151 78.7536C784.915 79.157 784.586 79.4681 784.162 79.6868C783.742 79.9027 783.252 80.0107 782.692 80.0107C782.181 80.0107 781.721 79.9198 781.311 79.7379C780.905 79.5533 780.583 79.2806 780.344 78.9198C780.105 78.559 779.986 78.1101 779.986 77.5732H781.559C781.561 77.809 781.613 78.0121 781.712 78.1826C781.814 78.353 781.955 78.4837 782.134 78.5746C782.313 78.6655 782.519 78.711 782.752 78.711C783.005 78.711 783.219 78.6584 783.395 78.5533C783.571 78.4453 783.705 78.2862 783.796 78.076C783.89 77.8658 783.938 77.6073 783.941 77.3004V71.1641ZM791.967 73.5632C791.927 73.1911 791.76 72.9013 791.464 72.6939C791.172 72.4865 790.791 72.3828 790.322 72.3828C789.993 72.3828 789.71 72.4326 789.474 72.532C789.238 72.6314 789.058 72.7664 788.933 72.9368C788.808 73.1073 788.744 73.3019 788.741 73.5206C788.741 73.7024 788.782 73.8601 788.865 73.9936C788.95 74.1272 789.065 74.2408 789.21 74.3345C789.355 74.4254 789.515 74.5022 789.691 74.5647C789.868 74.6272 790.045 74.6797 790.224 74.7223L791.042 74.9269C791.372 75.0036 791.689 75.1073 791.993 75.2379C792.299 75.3686 792.573 75.5334 792.815 75.7323C793.059 75.9311 793.252 76.1712 793.395 76.4524C793.537 76.7337 793.608 77.0632 793.608 77.4411C793.608 77.9524 793.477 78.4027 793.216 78.7919C792.954 79.1783 792.576 79.4808 792.082 79.6996C791.591 79.9155 790.995 80.0235 790.297 80.0235C789.618 80.0235 789.028 79.9183 788.528 79.7081C788.031 79.4979 787.642 79.1911 787.36 78.7877C787.082 78.3843 786.931 77.8928 786.909 77.3132H788.464C788.487 77.6172 788.581 77.8701 788.745 78.0718C788.91 78.2735 789.125 78.424 789.389 78.5235C789.656 78.6229 789.954 78.6726 790.284 78.6726C790.627 78.6726 790.929 78.6215 791.187 78.5192C791.448 78.4141 791.653 78.2692 791.801 78.0845C791.948 77.897 792.024 77.6783 792.027 77.4283C792.024 77.201 791.957 77.0135 791.826 76.8658C791.696 76.7152 791.512 76.5902 791.277 76.4908C791.044 76.3885 790.771 76.2976 790.458 76.2181L789.466 75.9624C788.747 75.7777 788.179 75.4979 787.761 75.1229C787.346 74.7451 787.139 74.2436 787.139 73.6186C787.139 73.1044 787.278 72.6541 787.556 72.2678C787.838 71.8814 788.22 71.5817 788.703 71.3686C789.186 71.1527 789.733 71.0448 790.343 71.0448C790.963 71.0448 791.505 71.1527 791.971 71.3686C792.44 71.5817 792.808 71.8786 793.075 72.2593C793.342 72.6371 793.48 73.0718 793.488 73.5632H791.967ZM796.338 71.1641L798.26 74.3601H798.328L800.259 71.1641H802.061L799.372 75.5277L802.104 79.8914H800.271L798.328 76.7166H798.26L796.317 79.8914H794.493L797.25 75.5277L794.527 71.1641H796.338Z" fill="url(#paint43_linear_798_5600)"/>
<defs>
<linearGradient id="paint0_linear_798_5600" x1="158.308" y1="0.5" x2="158.308" y2="57.4106" gradientUnits="userSpaceOnUse">
<stop stop-color="#1E1E1E" stop-opacity="0.14"/>
<stop offset="1" stop-opacity="0"/>
</linearGradient>
<linearGradient id="paint1_linear_798_5600" x1="182.846" y1="0.5" x2="182.846" y2="57.4106" gradientUnits="userSpaceOnUse">
<stop stop-color="#1E1E1E" stop-opacity="0.14"/>
<stop offset="1" stop-opacity="0"/>
</linearGradient>
<linearGradient id="paint2_linear_798_5600" x1="202.539" y1="0.5" x2="202.539" y2="57.4106" gradientUnits="userSpaceOnUse">
<stop stop-color="#1E1E1E" stop-opacity="0.14"/>
<stop offset="1" stop-opacity="0"/>
</linearGradient>
<linearGradient id="paint3_linear_798_5600" x1="222.231" y1="0.5" x2="222.231" y2="57.4106" gradientUnits="userSpaceOnUse">
<stop stop-color="#1E1E1E" stop-opacity="0.14"/>
<stop offset="1" stop-opacity="0"/>
</linearGradient>
<linearGradient id="paint4_linear_798_5600" x1="251.616" y1="0.5" x2="251.616" y2="57.4106" gradientUnits="userSpaceOnUse">
<stop stop-color="#1E1E1E" stop-opacity="0.14"/>
<stop offset="1" stop-opacity="0"/>
</linearGradient>
<linearGradient id="paint5_linear_798_5600" x1="285.847" y1="0.5" x2="285.847" y2="57.4106" gradientUnits="userSpaceOnUse">
<stop stop-color="#1E1E1E" stop-opacity="0.14"/>
<stop offset="1" stop-opacity="0"/>
</linearGradient>
<linearGradient id="paint6_linear_798_5600" x1="310.384" y1="0.5" x2="310.384" y2="57.4106" gradientUnits="userSpaceOnUse">
<stop stop-color="#1E1E1E" stop-opacity="0.14"/>
<stop offset="1" stop-opacity="0"/>
</linearGradient>
<linearGradient id="paint7_linear_798_5600" x1="344.615" y1="0.5" x2="344.615" y2="57.4106" gradientUnits="userSpaceOnUse">
<stop stop-color="#1E1E1E" stop-opacity="0.14"/>
<stop offset="1" stop-opacity="0"/>
</linearGradient>
<linearGradient id="paint8_linear_798_5600" x1="378.846" y1="0.5" x2="378.846" y2="57.4106" gradientUnits="userSpaceOnUse">
<stop stop-color="#1E1E1E" stop-opacity="0.14"/>
<stop offset="1" stop-opacity="0"/>
</linearGradient>
<linearGradient id="paint9_linear_798_5600" x1="398.539" y1="0.5" x2="398.539" y2="57.4106" gradientUnits="userSpaceOnUse">
<stop stop-color="#1E1E1E" stop-opacity="0.14"/>
<stop offset="1" stop-opacity="0"/>
</linearGradient>
<linearGradient id="paint10_linear_798_5600" x1="418.231" y1="0.5" x2="418.231" y2="57.4106" gradientUnits="userSpaceOnUse">
<stop stop-color="#1E1E1E" stop-opacity="0.14"/>
<stop offset="1" stop-opacity="0"/>
</linearGradient>
<linearGradient id="paint11_linear_798_5600" x1="442.769" y1="0.5" x2="442.769" y2="57.4106" gradientUnits="userSpaceOnUse">
<stop stop-color="#1E1E1E" stop-opacity="0.14"/>
<stop offset="1" stop-opacity="0"/>
</linearGradient>
<linearGradient id="paint12_linear_798_5600" x1="481.847" y1="0.5" x2="481.847" y2="57.4106" gradientUnits="userSpaceOnUse">
<stop stop-color="#1E1E1E" stop-opacity="0.14"/>
<stop offset="1" stop-opacity="0"/>
</linearGradient>
<linearGradient id="paint13_linear_798_5600" x1="525.769" y1="0.5" x2="525.769" y2="57.4106" gradientUnits="userSpaceOnUse">
<stop stop-color="#1E1E1E" stop-opacity="0.14"/>
<stop offset="1" stop-opacity="0"/>
</linearGradient>
<linearGradient id="paint14_linear_798_5600" x1="555.154" y1="0.5" x2="555.154" y2="57.4106" gradientUnits="userSpaceOnUse">
<stop stop-color="#1E1E1E" stop-opacity="0.14"/>
<stop offset="1" stop-opacity="0"/>
</linearGradient>
<linearGradient id="paint15_linear_798_5600" x1="574.846" y1="0.5" x2="574.846" y2="57.4106" gradientUnits="userSpaceOnUse">
<stop stop-color="#1E1E1E" stop-opacity="0.14"/>
<stop offset="1" stop-opacity="0"/>
</linearGradient>
<linearGradient id="paint16_linear_798_5600" x1="594.539" y1="0.5" x2="594.539" y2="57.4106" gradientUnits="userSpaceOnUse">
<stop stop-color="#1E1E1E" stop-opacity="0.14"/>
<stop offset="1" stop-opacity="0"/>
</linearGradient>
<linearGradient id="paint17_linear_798_5600" x1="619.077" y1="0.5" x2="619.077" y2="57.4106" gradientUnits="userSpaceOnUse">
<stop stop-color="#1E1E1E" stop-opacity="0.14"/>
<stop offset="1" stop-opacity="0"/>
</linearGradient>
<linearGradient id="paint18_linear_798_5600" x1="658.154" y1="0.5" x2="658.154" y2="57.4106" gradientUnits="userSpaceOnUse">
<stop stop-color="#1E1E1E" stop-opacity="0.14"/>
<stop offset="1" stop-opacity="0"/>
</linearGradient>
<linearGradient id="paint19_linear_798_5600" x1="702.077" y1="0.5" x2="702.077" y2="57.4106" gradientUnits="userSpaceOnUse">
<stop stop-color="#1E1E1E" stop-opacity="0.14"/>
<stop offset="1" stop-opacity="0"/>
</linearGradient>
<linearGradient id="paint20_linear_798_5600" x1="731.461" y1="0.5" x2="731.461" y2="57.4106" gradientUnits="userSpaceOnUse">
<stop stop-color="#1E1E1E" stop-opacity="0.14"/>
<stop offset="1" stop-opacity="0"/>
</linearGradient>
<linearGradient id="paint21_linear_798_5600" x1="751.154" y1="0.5" x2="751.154" y2="57.4106" gradientUnits="userSpaceOnUse">
<stop stop-color="#1E1E1E" stop-opacity="0.14"/>
<stop offset="1" stop-opacity="0"/>
</linearGradient>
<linearGradient id="paint22_linear_798_5600" x1="770.846" y1="0.5" x2="770.846" y2="57.4106" gradientUnits="userSpaceOnUse">
<stop stop-color="#1E1E1E" stop-opacity="0.14"/>
<stop offset="1" stop-opacity="0"/>
</linearGradient>
<linearGradient id="paint23_linear_798_5600" x1="805.077" y1="0.5" x2="805.077" y2="57.4106" gradientUnits="userSpaceOnUse">
<stop stop-color="#1E1E1E" stop-opacity="0.14"/>
<stop offset="1" stop-opacity="0"/>
</linearGradient>
<linearGradient id="paint24_linear_798_5600" x1="839.308" y1="0.5" x2="839.308" y2="57.4106" gradientUnits="userSpaceOnUse">
<stop stop-color="#1E1E1E" stop-opacity="0.14"/>
<stop offset="1" stop-opacity="0"/>
</linearGradient>
<linearGradient id="paint25_linear_798_5600" x1="863.847" y1="0.5" x2="863.847" y2="57.4106" gradientUnits="userSpaceOnUse">
<stop stop-color="#1E1E1E" stop-opacity="0.14"/>
<stop offset="1" stop-opacity="0"/>
</linearGradient>
<linearGradient id="paint26_linear_798_5600" x1="898.078" y1="0.5" x2="898.078" y2="57.4106" gradientUnits="userSpaceOnUse">
<stop stop-color="#1E1E1E" stop-opacity="0.14"/>
<stop offset="1" stop-opacity="0"/>
</linearGradient>
<linearGradient id="paint27_linear_798_5600" x1="927.461" y1="0.5" x2="927.461" y2="57.4106" gradientUnits="userSpaceOnUse">
<stop stop-color="#1E1E1E" stop-opacity="0.14"/>
<stop offset="1" stop-opacity="0"/>
</linearGradient>
<linearGradient id="paint28_linear_798_5600" x1="952" y1="0.5" x2="952" y2="57.4106" gradientUnits="userSpaceOnUse">
<stop stop-color="#1E1E1E" stop-opacity="0.14"/>
<stop offset="1" stop-opacity="0"/>
</linearGradient>
<linearGradient id="paint29_linear_798_5600" x1="976.539" y1="0.5" x2="976.539" y2="57.4106" gradientUnits="userSpaceOnUse">
<stop stop-color="#1E1E1E" stop-opacity="0.14"/>
<stop offset="1" stop-opacity="0"/>
</linearGradient>
<linearGradient id="paint30_linear_798_5600" x1="996.231" y1="0.5" x2="996.231" y2="57.4106" gradientUnits="userSpaceOnUse">
<stop stop-color="#1E1E1E" stop-opacity="0.14"/>
<stop offset="1" stop-opacity="0"/>
</linearGradient>
<linearGradient id="paint31_linear_798_5600" x1="1030.46" y1="0.5" x2="1030.46" y2="57.4106" gradientUnits="userSpaceOnUse">
<stop stop-color="#1E1E1E" stop-opacity="0.14"/>
<stop offset="1" stop-opacity="0"/>
</linearGradient>
<linearGradient id="paint32_linear_798_5600" x1="1064.69" y1="0.5" x2="1064.69" y2="57.4106" gradientUnits="userSpaceOnUse">
<stop stop-color="#1E1E1E" stop-opacity="0.14"/>
<stop offset="1" stop-opacity="0"/>
</linearGradient>
<linearGradient id="paint33_linear_798_5600" x1="1098.92" y1="0.5" x2="1098.92" y2="57.4106" gradientUnits="userSpaceOnUse">
<stop stop-color="#1E1E1E" stop-opacity="0.14"/>
<stop offset="1" stop-opacity="0"/>
</linearGradient>
<linearGradient id="paint34_linear_798_5600" x1="1133.15" y1="0.5" x2="1133.15" y2="57.4106" gradientUnits="userSpaceOnUse">
<stop stop-color="#1E1E1E" stop-opacity="0.14"/>
<stop offset="1" stop-opacity="0"/>
</linearGradient>
<linearGradient id="paint35_linear_798_5600" x1="1152.85" y1="0.5" x2="1152.85" y2="57.4106" gradientUnits="userSpaceOnUse">
<stop stop-color="#1E1E1E" stop-opacity="0.14"/>
<stop offset="1" stop-opacity="0"/>
</linearGradient>
<linearGradient id="paint36_linear_798_5600" x1="1177.38" y1="0.5" x2="1177.38" y2="57.4106" gradientUnits="userSpaceOnUse">
<stop stop-color="#1E1E1E" stop-opacity="0.14"/>
<stop offset="1" stop-opacity="0"/>
</linearGradient>
<linearGradient id="paint37_linear_798_5600" x1="1211.62" y1="0.5" x2="1211.62" y2="57.4106" gradientUnits="userSpaceOnUse">
<stop stop-color="#1E1E1E" stop-opacity="0.14"/>
<stop offset="1" stop-opacity="0"/>
</linearGradient>
<linearGradient id="paint38_linear_798_5600" x1="1241" y1="0.5" x2="1241" y2="57.4106" gradientUnits="userSpaceOnUse">
<stop stop-color="#1E1E1E" stop-opacity="0.14"/>
<stop offset="1" stop-opacity="0"/>
</linearGradient>
<linearGradient id="paint39_linear_798_5600" x1="1265.54" y1="0.5" x2="1265.54" y2="57.4106" gradientUnits="userSpaceOnUse">
<stop stop-color="#1E1E1E" stop-opacity="0.14"/>
<stop offset="1" stop-opacity="0"/>
</linearGradient>
<linearGradient id="paint40_linear_798_5600" x1="1299.77" y1="0.5" x2="1299.77" y2="57.4106" gradientUnits="userSpaceOnUse">
<stop stop-color="#1E1E1E" stop-opacity="0.14"/>
<stop offset="1" stop-opacity="0"/>
</linearGradient>
<linearGradient id="paint41_linear_798_5600" x1="1329.15" y1="0.5" x2="1329.15" y2="57.4106" gradientUnits="userSpaceOnUse">
<stop stop-color="#1E1E1E" stop-opacity="0.14"/>
<stop offset="1" stop-opacity="0"/>
</linearGradient>
<linearGradient id="paint42_linear_798_5600" x1="1353.69" y1="0.5" x2="1353.69" y2="57.4106" gradientUnits="userSpaceOnUse">
<stop stop-color="#1E1E1E" stop-opacity="0.14"/>
<stop offset="1" stop-opacity="0"/>
</linearGradient>
<linearGradient id="paint43_linear_798_5600" x1="511.203" y1="75.5" x2="991.994" y2="171.152" gradientUnits="userSpaceOnUse">
<stop/>
<stop offset="0.57977" stop-opacity="0.08"/>
<stop offset="0.728486" stop-opacity="0.06"/>
<stop offset="1" stop-opacity="0"/>
</linearGradient>
</defs>
</svg>
