<svg width="1512" height="80" viewBox="0 0 1512 80" fill="none" xmlns="http://www.w3.org/2000/svg">
<path d="M168 0H148.615V56.9106H168V0Z" fill="url(#paint0_linear_446_507)"/>
<path d="M187.692 0H178V56.9106H187.692V0Z" fill="url(#paint1_linear_446_507)"/>
<path d="M207.385 0H197.692V56.9106H207.385V0Z" fill="url(#paint2_linear_446_507)"/>
<path d="M227.077 0H217.385V56.9106H227.077V0Z" fill="url(#paint3_linear_446_507)"/>
<path d="M266.154 0H237.077V56.9106H266.154V0Z" fill="url(#paint4_linear_446_507)"/>
<path d="M295.538 0H276.154V56.9106H295.538V0Z" fill="url(#paint5_linear_446_507)"/>
<path d="M315.231 0H305.538V56.9106H315.231V0Z" fill="url(#paint6_linear_446_507)"/>
<path d="M364 0H325.231V56.9106H364V0Z" fill="url(#paint7_linear_446_507)"/>
<path d="M383.692 0H374V56.9106H383.692V0Z" fill="url(#paint8_linear_446_507)"/>
<path d="M403.385 0H393.692V56.9106H403.385V0Z" fill="url(#paint9_linear_446_507)"/>
<path d="M423.077 0H413.385V56.9106H423.077V0Z" fill="url(#paint10_linear_446_507)"/>
<path d="M452.462 0H433.077V56.9106H452.462V0Z" fill="url(#paint11_linear_446_507)"/>
<path d="M501.231 0H462.461V56.9106H501.231V0Z" fill="url(#paint12_linear_446_507)"/>
<path d="M540.308 0H511.231V56.9106H540.308V0Z" fill="url(#paint13_linear_446_507)"/>
<path d="M560 0H550.308V56.9106H560V0Z" fill="url(#paint14_linear_446_507)"/>
<path d="M579.692 0H570V56.9106H579.692V0Z" fill="url(#paint15_linear_446_507)"/>
<path d="M599.385 0H589.692V56.9106H599.385V0Z" fill="url(#paint16_linear_446_507)"/>
<path d="M628.769 0H609.385V56.9106H628.769V0Z" fill="url(#paint17_linear_446_507)"/>
<path d="M677.539 0H638.769V56.9106H677.539V0Z" fill="url(#paint18_linear_446_507)"/>
<path d="M716.615 0H687.539V56.9106H716.615V0Z" fill="url(#paint19_linear_446_507)"/>
<path d="M736.308 0H726.615V56.9106H736.308V0Z" fill="url(#paint20_linear_446_507)"/>
<path d="M756 0H746.308V56.9106H756V0Z" fill="url(#paint21_linear_446_507)"/>
<path d="M775.692 0H766V56.9106H775.692V0Z" fill="url(#paint22_linear_446_507)"/>
<path d="M824.462 0H785.692V56.9106H824.462V0Z" fill="url(#paint23_linear_446_507)"/>
<path d="M844.154 0H834.462V56.9106H844.154V0Z" fill="url(#paint24_linear_446_507)"/>
<path d="M873.538 0H854.154V56.9106H873.538V0Z" fill="url(#paint25_linear_446_507)"/>
<path d="M912.615 0H883.539V56.9106H912.615V0Z" fill="url(#paint26_linear_446_507)"/>
<path d="M932.308 0H922.615V56.9106H932.308V0Z" fill="url(#paint27_linear_446_507)"/>
<path d="M961.692 0H942.308V56.9106H961.692V0Z" fill="url(#paint28_linear_446_507)"/>
<path d="M981.385 0H971.692V56.9106H981.385V0Z" fill="url(#paint29_linear_446_507)"/>
<path d="M1001.08 0H991.385V56.9106H1001.08V0Z" fill="url(#paint30_linear_446_507)"/>
<path d="M1049.85 0H1011.08V56.9106H1049.85V0Z" fill="url(#paint31_linear_446_507)"/>
<path d="M1069.54 0H1059.85V56.9106H1069.54V0Z" fill="url(#paint32_linear_446_507)"/>
<path d="M1118.31 0H1079.54V56.9106H1118.31V0Z" fill="url(#paint33_linear_446_507)"/>
<path d="M1138 0H1128.31V56.9106H1138V0Z" fill="url(#paint34_linear_446_507)"/>
<path d="M1157.69 0H1148V56.9106H1157.69V0Z" fill="url(#paint35_linear_446_507)"/>
<path d="M1187.08 0H1167.69V56.9106H1187.08V0Z" fill="url(#paint36_linear_446_507)"/>
<path d="M1226.15 0H1197.08V56.9106H1226.15V0Z" fill="url(#paint37_linear_446_507)"/>
<path d="M1245.85 0H1236.15V56.9106H1245.85V0Z" fill="url(#paint38_linear_446_507)"/>
<path d="M1275.23 0H1255.85V56.9106H1275.23V0Z" fill="url(#paint39_linear_446_507)"/>
<path d="M1314.31 0H1285.23V56.9106H1314.31V0Z" fill="url(#paint40_linear_446_507)"/>
<path d="M1334 0H1324.31V56.9106H1334V0Z" fill="url(#paint41_linear_446_507)"/>
<path d="M1363.38 0H1344V56.9106H1363.38V0Z" fill="url(#paint42_linear_446_507)"/>
<path d="M710.419 70.6641H712.354L714.945 76.9879H715.047L717.638 70.6641H719.573V79.3914H718.056V73.3956H717.975L715.563 79.3658H714.429L712.017 73.3828H711.936V79.3914H710.419V70.6641ZM726.796 70.6641H728.377V76.3658C728.377 76.9908 728.229 77.5405 727.934 78.0149C727.641 78.4894 727.229 78.8601 726.698 79.1272C726.167 79.3914 725.546 79.5235 724.836 79.5235C724.122 79.5235 723.5 79.3914 722.969 79.1272C722.438 78.8601 722.026 78.4894 721.733 78.0149C721.441 77.5405 721.294 76.9908 721.294 76.3658V70.6641H722.875V76.2337C722.875 76.5973 722.955 76.9212 723.114 77.2053C723.276 77.4894 723.503 77.7124 723.796 77.8743C724.088 78.0334 724.435 78.1129 724.836 78.1129C725.236 78.1129 725.583 78.0334 725.875 77.8743C726.171 77.7124 726.398 77.4894 726.557 77.2053C726.716 76.9212 726.796 76.5973 726.796 76.2337V70.6641ZM731.216 79.3914H729.528L732.601 70.6641H734.553L737.629 79.3914H735.942L733.611 72.4539H733.543L731.216 79.3914ZM731.271 75.9695H735.874V77.2394H731.271V75.9695ZM738.779 70.6641H740.713L743.304 76.9879H743.407L745.997 70.6641H747.932V79.3914H746.415V73.3956H746.334L743.922 79.3658H742.789L740.377 73.3828H740.296V79.3914H738.779V70.6641ZM749.654 70.6641H751.588L754.179 76.9879H754.282L756.872 70.6641H758.807V79.3914H757.29V73.3956H757.209L754.797 79.3658H753.664L751.252 73.3828H751.171V79.3914H749.654V70.6641ZM761.649 79.3914H759.962L763.034 70.6641H764.986L768.063 79.3914H766.375L764.044 72.4539H763.976L761.649 79.3914ZM761.705 75.9695H766.307V77.2394H761.705V75.9695ZM769.212 79.3914V70.6641H772.485C773.156 70.6641 773.718 70.7806 774.173 71.0135C774.63 71.2465 774.975 71.5732 775.208 71.9936C775.444 72.4112 775.562 72.8985 775.562 73.4553C775.562 74.0149 775.442 74.5007 775.204 74.9127C774.968 75.3218 774.62 75.6385 774.16 75.8629C773.7 76.0845 773.134 76.1953 772.464 76.1953H770.133V74.8828H772.251C772.643 74.8828 772.964 74.8289 773.214 74.7209C773.464 74.6101 773.648 74.4496 773.768 74.2394C773.89 74.0263 773.951 73.7649 773.951 73.4553C773.951 73.1456 773.89 72.8814 773.768 72.6627C773.646 72.4411 773.46 72.2735 773.21 72.1598C772.96 72.0433 772.637 71.9851 772.242 71.9851H770.793V79.3914H769.212ZM773.721 75.4368L775.881 79.3914H774.117L771.995 75.4368H773.721ZM777.899 79.4851C777.641 79.4851 777.419 79.3942 777.234 79.2124C777.05 79.0306 776.959 78.809 776.962 78.5476C776.959 78.2919 777.05 78.0732 777.234 77.8914C777.419 77.7095 777.641 77.6186 777.899 77.6186C778.149 77.6186 778.366 77.7095 778.551 77.8914C778.739 78.0732 778.834 78.2919 778.837 78.5476C778.834 78.7209 778.788 78.8786 778.7 79.0206C778.615 79.1627 778.501 79.2763 778.359 79.3615C778.22 79.4439 778.067 79.4851 777.899 79.4851ZM783.941 70.6641H785.509V76.8004C785.506 77.3629 785.387 77.8473 785.151 78.2536C784.915 78.657 784.586 78.9681 784.162 79.1868C783.742 79.4027 783.252 79.5107 782.692 79.5107C782.181 79.5107 781.721 79.4198 781.311 79.2379C780.905 79.0533 780.583 78.7806 780.344 78.4198C780.105 78.059 779.986 77.6101 779.986 77.0732H781.559C781.561 77.309 781.613 77.5121 781.712 77.6826C781.814 77.853 781.955 77.9837 782.134 78.0746C782.313 78.1655 782.519 78.211 782.752 78.211C783.005 78.211 783.219 78.1584 783.395 78.0533C783.571 77.9453 783.705 77.7862 783.796 77.576C783.89 77.3658 783.938 77.1073 783.941 76.8004V70.6641ZM791.967 73.0632C791.927 72.6911 791.76 72.4013 791.464 72.1939C791.172 71.9865 790.791 71.8828 790.322 71.8828C789.993 71.8828 789.71 71.9326 789.474 72.032C789.238 72.1314 789.058 72.2664 788.933 72.4368C788.808 72.6073 788.744 72.8019 788.741 73.0206C788.741 73.2024 788.782 73.3601 788.865 73.4936C788.95 73.6272 789.065 73.7408 789.21 73.8345C789.355 73.9254 789.515 74.0022 789.691 74.0647C789.868 74.1272 790.045 74.1797 790.224 74.2223L791.042 74.4269C791.372 74.5036 791.689 74.6073 791.993 74.7379C792.299 74.8686 792.573 75.0334 792.815 75.2323C793.059 75.4311 793.252 75.6712 793.395 75.9524C793.537 76.2337 793.608 76.5632 793.608 76.9411C793.608 77.4524 793.477 77.9027 793.216 78.2919C792.954 78.6783 792.576 78.9808 792.082 79.1996C791.591 79.4155 790.995 79.5235 790.297 79.5235C789.618 79.5235 789.028 79.4183 788.528 79.2081C788.031 78.9979 787.642 78.6911 787.36 78.2877C787.082 77.8843 786.931 77.3928 786.909 76.8132H788.464C788.487 77.1172 788.581 77.3701 788.745 77.5718C788.91 77.7735 789.125 77.924 789.389 78.0235C789.656 78.1229 789.954 78.1726 790.284 78.1726C790.627 78.1726 790.929 78.1215 791.187 78.0192C791.448 77.9141 791.653 77.7692 791.801 77.5845C791.948 77.397 792.024 77.1783 792.027 76.9283C792.024 76.701 791.957 76.5135 791.826 76.3658C791.696 76.2152 791.512 76.0902 791.277 75.9908C791.044 75.8885 790.771 75.7976 790.458 75.7181L789.466 75.4624C788.747 75.2777 788.179 74.9979 787.761 74.6229C787.346 74.2451 787.139 73.7436 787.139 73.1186C787.139 72.6044 787.278 72.1541 787.556 71.7678C787.838 71.3814 788.22 71.0817 788.703 70.8686C789.186 70.6527 789.733 70.5448 790.343 70.5448C790.963 70.5448 791.505 70.6527 791.971 70.8686C792.44 71.0817 792.808 71.3786 793.075 71.7593C793.342 72.1371 793.48 72.5718 793.488 73.0632H791.967ZM796.338 70.6641L798.26 73.8601H798.328L800.259 70.6641H802.061L799.372 75.0277L802.104 79.3914H800.271L798.328 76.2166H798.26L796.317 79.3914H794.493L797.25 75.0277L794.527 70.6641H796.338Z" fill="url(#paint43_linear_446_507)"/>
<defs>
<linearGradient id="paint0_linear_446_507" x1="158.308" y1="0" x2="158.308" y2="56.9106" gradientUnits="userSpaceOnUse">
<stop stop-color="#F3F3F3" stop-opacity="0.09"/>
<stop offset="1" stop-color="#8A8A8A" stop-opacity="0"/>
</linearGradient>
<linearGradient id="paint1_linear_446_507" x1="182.846" y1="0" x2="182.846" y2="56.9106" gradientUnits="userSpaceOnUse">
<stop stop-color="#F3F3F3" stop-opacity="0.09"/>
<stop offset="1" stop-color="#8A8A8A" stop-opacity="0"/>
</linearGradient>
<linearGradient id="paint2_linear_446_507" x1="202.539" y1="0" x2="202.539" y2="56.9106" gradientUnits="userSpaceOnUse">
<stop stop-color="#F3F3F3" stop-opacity="0.09"/>
<stop offset="1" stop-color="#8A8A8A" stop-opacity="0"/>
</linearGradient>
<linearGradient id="paint3_linear_446_507" x1="222.231" y1="0" x2="222.231" y2="56.9106" gradientUnits="userSpaceOnUse">
<stop stop-color="#F3F3F3" stop-opacity="0.09"/>
<stop offset="1" stop-color="#8A8A8A" stop-opacity="0"/>
</linearGradient>
<linearGradient id="paint4_linear_446_507" x1="251.615" y1="0" x2="251.615" y2="56.9106" gradientUnits="userSpaceOnUse">
<stop stop-color="#F3F3F3" stop-opacity="0.09"/>
<stop offset="1" stop-color="#8A8A8A" stop-opacity="0"/>
</linearGradient>
<linearGradient id="paint5_linear_446_507" x1="285.846" y1="0" x2="285.846" y2="56.9106" gradientUnits="userSpaceOnUse">
<stop stop-color="#F3F3F3" stop-opacity="0.09"/>
<stop offset="1" stop-color="#8A8A8A" stop-opacity="0"/>
</linearGradient>
<linearGradient id="paint6_linear_446_507" x1="310.384" y1="0" x2="310.384" y2="56.9106" gradientUnits="userSpaceOnUse">
<stop stop-color="#F3F3F3" stop-opacity="0.09"/>
<stop offset="1" stop-color="#8A8A8A" stop-opacity="0"/>
</linearGradient>
<linearGradient id="paint7_linear_446_507" x1="344.615" y1="0" x2="344.615" y2="56.9106" gradientUnits="userSpaceOnUse">
<stop stop-color="#F3F3F3" stop-opacity="0.09"/>
<stop offset="1" stop-color="#8A8A8A" stop-opacity="0"/>
</linearGradient>
<linearGradient id="paint8_linear_446_507" x1="378.846" y1="0" x2="378.846" y2="56.9106" gradientUnits="userSpaceOnUse">
<stop stop-color="#F3F3F3" stop-opacity="0.09"/>
<stop offset="1" stop-color="#8A8A8A" stop-opacity="0"/>
</linearGradient>
<linearGradient id="paint9_linear_446_507" x1="398.539" y1="0" x2="398.539" y2="56.9106" gradientUnits="userSpaceOnUse">
<stop stop-color="#F3F3F3" stop-opacity="0.09"/>
<stop offset="1" stop-color="#8A8A8A" stop-opacity="0"/>
</linearGradient>
<linearGradient id="paint10_linear_446_507" x1="418.231" y1="0" x2="418.231" y2="56.9106" gradientUnits="userSpaceOnUse">
<stop stop-color="#F3F3F3" stop-opacity="0.09"/>
<stop offset="1" stop-color="#8A8A8A" stop-opacity="0"/>
</linearGradient>
<linearGradient id="paint11_linear_446_507" x1="442.769" y1="0" x2="442.769" y2="56.9106" gradientUnits="userSpaceOnUse">
<stop stop-color="#F3F3F3" stop-opacity="0.09"/>
<stop offset="1" stop-color="#8A8A8A" stop-opacity="0"/>
</linearGradient>
<linearGradient id="paint12_linear_446_507" x1="481.846" y1="0" x2="481.846" y2="56.9106" gradientUnits="userSpaceOnUse">
<stop stop-color="#F3F3F3" stop-opacity="0.09"/>
<stop offset="1" stop-color="#8A8A8A" stop-opacity="0"/>
</linearGradient>
<linearGradient id="paint13_linear_446_507" x1="525.769" y1="0" x2="525.769" y2="56.9106" gradientUnits="userSpaceOnUse">
<stop stop-color="#F3F3F3" stop-opacity="0.09"/>
<stop offset="1" stop-color="#8A8A8A" stop-opacity="0"/>
</linearGradient>
<linearGradient id="paint14_linear_446_507" x1="555.154" y1="0" x2="555.154" y2="56.9106" gradientUnits="userSpaceOnUse">
<stop stop-color="#F3F3F3" stop-opacity="0.09"/>
<stop offset="1" stop-color="#8A8A8A" stop-opacity="0"/>
</linearGradient>
<linearGradient id="paint15_linear_446_507" x1="574.846" y1="0" x2="574.846" y2="56.9106" gradientUnits="userSpaceOnUse">
<stop stop-color="#F3F3F3" stop-opacity="0.09"/>
<stop offset="1" stop-color="#8A8A8A" stop-opacity="0"/>
</linearGradient>
<linearGradient id="paint16_linear_446_507" x1="594.539" y1="0" x2="594.539" y2="56.9106" gradientUnits="userSpaceOnUse">
<stop stop-color="#F3F3F3" stop-opacity="0.09"/>
<stop offset="1" stop-color="#8A8A8A" stop-opacity="0"/>
</linearGradient>
<linearGradient id="paint17_linear_446_507" x1="619.077" y1="0" x2="619.077" y2="56.9106" gradientUnits="userSpaceOnUse">
<stop stop-color="#F3F3F3" stop-opacity="0.09"/>
<stop offset="1" stop-color="#8A8A8A" stop-opacity="0"/>
</linearGradient>
<linearGradient id="paint18_linear_446_507" x1="658.154" y1="0" x2="658.154" y2="56.9106" gradientUnits="userSpaceOnUse">
<stop stop-color="#F3F3F3" stop-opacity="0.09"/>
<stop offset="1" stop-color="#8A8A8A" stop-opacity="0"/>
</linearGradient>
<linearGradient id="paint19_linear_446_507" x1="702.077" y1="0" x2="702.077" y2="56.9106" gradientUnits="userSpaceOnUse">
<stop stop-color="#F3F3F3" stop-opacity="0.09"/>
<stop offset="1" stop-color="#8A8A8A" stop-opacity="0"/>
</linearGradient>
<linearGradient id="paint20_linear_446_507" x1="731.462" y1="0" x2="731.462" y2="56.9106" gradientUnits="userSpaceOnUse">
<stop stop-color="#F3F3F3" stop-opacity="0.09"/>
<stop offset="1" stop-color="#8A8A8A" stop-opacity="0"/>
</linearGradient>
<linearGradient id="paint21_linear_446_507" x1="751.154" y1="0" x2="751.154" y2="56.9106" gradientUnits="userSpaceOnUse">
<stop stop-color="#F3F3F3" stop-opacity="0.09"/>
<stop offset="1" stop-color="#8A8A8A" stop-opacity="0"/>
</linearGradient>
<linearGradient id="paint22_linear_446_507" x1="770.846" y1="0" x2="770.846" y2="56.9106" gradientUnits="userSpaceOnUse">
<stop stop-color="#F3F3F3" stop-opacity="0.09"/>
<stop offset="1" stop-color="#8A8A8A" stop-opacity="0"/>
</linearGradient>
<linearGradient id="paint23_linear_446_507" x1="805.077" y1="0" x2="805.077" y2="56.9106" gradientUnits="userSpaceOnUse">
<stop stop-color="#F3F3F3" stop-opacity="0.09"/>
<stop offset="1" stop-color="#8A8A8A" stop-opacity="0"/>
</linearGradient>
<linearGradient id="paint24_linear_446_507" x1="839.308" y1="0" x2="839.308" y2="56.9106" gradientUnits="userSpaceOnUse">
<stop stop-color="#F3F3F3" stop-opacity="0.09"/>
<stop offset="1" stop-color="#8A8A8A" stop-opacity="0"/>
</linearGradient>
<linearGradient id="paint25_linear_446_507" x1="863.846" y1="0" x2="863.846" y2="56.9106" gradientUnits="userSpaceOnUse">
<stop stop-color="#F3F3F3" stop-opacity="0.09"/>
<stop offset="1" stop-color="#8A8A8A" stop-opacity="0"/>
</linearGradient>
<linearGradient id="paint26_linear_446_507" x1="898.077" y1="0" x2="898.077" y2="56.9106" gradientUnits="userSpaceOnUse">
<stop stop-color="#F3F3F3" stop-opacity="0.09"/>
<stop offset="1" stop-color="#8A8A8A" stop-opacity="0"/>
</linearGradient>
<linearGradient id="paint27_linear_446_507" x1="927.461" y1="0" x2="927.461" y2="56.9106" gradientUnits="userSpaceOnUse">
<stop stop-color="#F3F3F3" stop-opacity="0.09"/>
<stop offset="1" stop-color="#8A8A8A" stop-opacity="0"/>
</linearGradient>
<linearGradient id="paint28_linear_446_507" x1="952" y1="0" x2="952" y2="56.9106" gradientUnits="userSpaceOnUse">
<stop stop-color="#F3F3F3" stop-opacity="0.09"/>
<stop offset="1" stop-color="#8A8A8A" stop-opacity="0"/>
</linearGradient>
<linearGradient id="paint29_linear_446_507" x1="976.539" y1="0" x2="976.539" y2="56.9106" gradientUnits="userSpaceOnUse">
<stop stop-color="#F3F3F3" stop-opacity="0.09"/>
<stop offset="1" stop-color="#8A8A8A" stop-opacity="0"/>
</linearGradient>
<linearGradient id="paint30_linear_446_507" x1="996.231" y1="0" x2="996.231" y2="56.9106" gradientUnits="userSpaceOnUse">
<stop stop-color="#F3F3F3" stop-opacity="0.09"/>
<stop offset="1" stop-color="#8A8A8A" stop-opacity="0"/>
</linearGradient>
<linearGradient id="paint31_linear_446_507" x1="1030.46" y1="0" x2="1030.46" y2="56.9106" gradientUnits="userSpaceOnUse">
<stop stop-color="#F3F3F3" stop-opacity="0.09"/>
<stop offset="1" stop-color="#8A8A8A" stop-opacity="0"/>
</linearGradient>
<linearGradient id="paint32_linear_446_507" x1="1064.69" y1="0" x2="1064.69" y2="56.9106" gradientUnits="userSpaceOnUse">
<stop stop-color="#F3F3F3" stop-opacity="0.09"/>
<stop offset="1" stop-color="#8A8A8A" stop-opacity="0"/>
</linearGradient>
<linearGradient id="paint33_linear_446_507" x1="1098.92" y1="0" x2="1098.92" y2="56.9106" gradientUnits="userSpaceOnUse">
<stop stop-color="#F3F3F3" stop-opacity="0.09"/>
<stop offset="1" stop-color="#8A8A8A" stop-opacity="0"/>
</linearGradient>
<linearGradient id="paint34_linear_446_507" x1="1133.15" y1="0" x2="1133.15" y2="56.9106" gradientUnits="userSpaceOnUse">
<stop stop-color="#F3F3F3" stop-opacity="0.09"/>
<stop offset="1" stop-color="#8A8A8A" stop-opacity="0"/>
</linearGradient>
<linearGradient id="paint35_linear_446_507" x1="1152.85" y1="0" x2="1152.85" y2="56.9106" gradientUnits="userSpaceOnUse">
<stop stop-color="#F3F3F3" stop-opacity="0.09"/>
<stop offset="1" stop-color="#8A8A8A" stop-opacity="0"/>
</linearGradient>
<linearGradient id="paint36_linear_446_507" x1="1177.38" y1="0" x2="1177.38" y2="56.9106" gradientUnits="userSpaceOnUse">
<stop stop-color="#F3F3F3" stop-opacity="0.09"/>
<stop offset="1" stop-color="#8A8A8A" stop-opacity="0"/>
</linearGradient>
<linearGradient id="paint37_linear_446_507" x1="1211.62" y1="0" x2="1211.62" y2="56.9106" gradientUnits="userSpaceOnUse">
<stop stop-color="#F3F3F3" stop-opacity="0.09"/>
<stop offset="1" stop-color="#8A8A8A" stop-opacity="0"/>
</linearGradient>
<linearGradient id="paint38_linear_446_507" x1="1241" y1="0" x2="1241" y2="56.9106" gradientUnits="userSpaceOnUse">
<stop stop-color="#F3F3F3" stop-opacity="0.09"/>
<stop offset="1" stop-color="#8A8A8A" stop-opacity="0"/>
</linearGradient>
<linearGradient id="paint39_linear_446_507" x1="1265.54" y1="0" x2="1265.54" y2="56.9106" gradientUnits="userSpaceOnUse">
<stop stop-color="#F3F3F3" stop-opacity="0.09"/>
<stop offset="1" stop-color="#8A8A8A" stop-opacity="0"/>
</linearGradient>
<linearGradient id="paint40_linear_446_507" x1="1299.77" y1="0" x2="1299.77" y2="56.9106" gradientUnits="userSpaceOnUse">
<stop stop-color="#F3F3F3" stop-opacity="0.09"/>
<stop offset="1" stop-color="#8A8A8A" stop-opacity="0"/>
</linearGradient>
<linearGradient id="paint41_linear_446_507" x1="1329.15" y1="0" x2="1329.15" y2="56.9106" gradientUnits="userSpaceOnUse">
<stop stop-color="#F3F3F3" stop-opacity="0.09"/>
<stop offset="1" stop-color="#8A8A8A" stop-opacity="0"/>
</linearGradient>
<linearGradient id="paint42_linear_446_507" x1="1353.69" y1="0" x2="1353.69" y2="56.9106" gradientUnits="userSpaceOnUse">
<stop stop-color="#F3F3F3" stop-opacity="0.09"/>
<stop offset="1" stop-color="#8A8A8A" stop-opacity="0"/>
</linearGradient>
<linearGradient id="paint43_linear_446_507" x1="511.203" y1="75" x2="991.994" y2="170.652" gradientUnits="userSpaceOnUse">
<stop stop-color="#F3F3F3" stop-opacity="0.37"/>
<stop offset="0.57977" stop-color="white" stop-opacity="0.08"/>
<stop offset="0.728486" stop-color="white" stop-opacity="0.08"/>
<stop offset="1" stop-color="white" stop-opacity="0"/>
</linearGradient>
</defs>
</svg>
