<svg width="174" height="199" viewBox="0 0 174 199" fill="none" xmlns="http://www.w3.org/2000/svg">
<circle cx="89" cy="29" r="29" fill="url(#paint0_linear_460_6270)"/>
<path d="M66.8807 23.3636H70.3636L73.3182 30.5682H73.4545L76.4091 23.3636H79.892V35H77.1534V27.8523H77.0568L74.2614 34.9261H72.5114L69.7159 27.8125H69.6193V35H66.8807V23.3636ZM81.6463 35V23.3636H89.7599V25.6477H84.4588V28.0341H89.3452V30.3239H84.4588V32.7159H89.7599V35H81.6463ZM91.1406 25.6477V23.3636H100.976V25.6477H97.4474V35H94.6747V25.6477H91.1406ZM103.413 35H100.391L104.317 23.3636H108.061L111.987 35H108.964L106.232 26.2955H106.141L103.413 35ZM103.01 30.4205H109.328V32.5568H103.01V30.4205Z" fill="url(#paint1_linear_460_6270)"/>
<circle cx="145" cy="98" r="29" fill="url(#paint2_linear_460_6270)"/>
<path d="M122.308 94.7273V102H120.55V94.7273H122.308ZM125.148 98.8892V102H123.412V96.5455H125.063V97.5469H125.123C125.244 97.2131 125.45 96.9515 125.741 96.7621C126.032 96.5703 126.379 96.4744 126.782 96.4744C127.165 96.4744 127.498 96.5608 127.78 96.7337C128.064 96.9041 128.284 97.1432 128.44 97.451C128.599 97.7564 128.677 98.1139 128.675 98.5234V102H126.938V98.8643C126.94 98.5613 126.863 98.3246 126.707 98.1541C126.553 97.9837 126.339 97.8984 126.064 97.8984C125.882 97.8984 125.721 97.9387 125.581 98.0192C125.444 98.0973 125.338 98.2098 125.262 98.3565C125.189 98.5033 125.151 98.6809 125.148 98.8892ZM134.512 98.2109L132.917 98.2536C132.901 98.1399 132.856 98.0393 132.782 97.9517C132.709 97.8617 132.613 97.7919 132.495 97.7422C132.379 97.6901 132.244 97.6641 132.09 97.6641C131.889 97.6641 131.717 97.7043 131.575 97.7848C131.435 97.8653 131.367 97.9742 131.369 98.1115C131.367 98.218 131.409 98.3104 131.497 98.3885C131.587 98.4666 131.747 98.5294 131.976 98.5767L133.027 98.7756C133.572 98.8797 133.977 99.0526 134.242 99.294C134.509 99.5355 134.644 99.8551 134.647 100.253C134.644 100.627 134.533 100.952 134.313 101.229C134.095 101.506 133.797 101.722 133.418 101.876C133.039 102.027 132.606 102.103 132.118 102.103C131.339 102.103 130.725 101.943 130.275 101.624C129.828 101.302 129.572 100.871 129.508 100.331L131.223 100.288C131.261 100.487 131.359 100.639 131.518 100.743C131.677 100.847 131.879 100.899 132.125 100.899C132.348 100.899 132.529 100.858 132.669 100.775C132.808 100.692 132.879 100.582 132.882 100.445C132.879 100.321 132.825 100.223 132.718 100.15C132.612 100.074 132.445 100.015 132.218 99.9723L131.266 99.7912C130.719 99.6918 130.312 99.5083 130.044 99.2408C129.777 98.9709 129.644 98.6276 129.647 98.2109C129.644 97.8464 129.741 97.535 129.938 97.277C130.134 97.0166 130.414 96.8177 130.776 96.6804C131.138 96.5431 131.565 96.4744 132.058 96.4744C132.797 96.4744 133.379 96.6295 133.805 96.9396C134.231 97.2474 134.467 97.6712 134.512 98.2109ZM138.58 96.5455V97.8239H135.139V96.5455H138.58ZM135.86 95.2386H137.597V100.285C137.597 100.391 137.613 100.478 137.646 100.544C137.682 100.608 137.733 100.654 137.799 100.683C137.865 100.709 137.945 100.722 138.037 100.722C138.103 100.722 138.173 100.716 138.247 100.704C138.322 100.69 138.379 100.678 138.417 100.668L138.68 101.922C138.597 101.946 138.48 101.975 138.328 102.011C138.179 102.046 138 102.069 137.792 102.078C137.385 102.097 137.036 102.05 136.744 101.936C136.456 101.82 136.234 101.64 136.08 101.396C135.929 101.152 135.856 100.846 135.86 100.477V95.2386ZM141.004 102.092C140.656 102.092 140.347 102.034 140.077 101.918C139.81 101.8 139.598 101.622 139.442 101.386C139.288 101.147 139.211 100.847 139.211 100.487C139.211 100.184 139.264 99.9285 139.371 99.7202C139.477 99.5118 139.624 99.3426 139.811 99.2124C139.998 99.0821 140.213 98.9839 140.457 98.9176C140.701 98.849 140.961 98.8028 141.238 98.7791C141.549 98.7507 141.798 98.7211 141.988 98.6903C142.177 98.6572 142.314 98.611 142.4 98.5518C142.487 98.4903 142.531 98.4039 142.531 98.2926V98.2749C142.531 98.0926 142.468 97.9517 142.343 97.8523C142.217 97.7528 142.048 97.7031 141.835 97.7031C141.605 97.7031 141.421 97.7528 141.281 97.8523C141.141 97.9517 141.053 98.089 141.015 98.2642L139.413 98.2074C139.461 97.8759 139.582 97.58 139.779 97.3196C139.978 97.0568 140.25 96.8509 140.596 96.7017C140.944 96.5502 141.362 96.4744 141.849 96.4744C142.197 96.4744 142.518 96.5159 142.812 96.5987C143.105 96.6792 143.361 96.7976 143.579 96.9538C143.796 97.1077 143.965 97.2971 144.083 97.522C144.204 97.7469 144.264 98.0038 144.264 98.2926V102H142.631V101.24H142.588C142.491 101.425 142.367 101.581 142.215 101.709C142.066 101.837 141.89 101.933 141.686 101.996C141.485 102.06 141.257 102.092 141.004 102.092ZM141.54 100.956C141.727 100.956 141.895 100.918 142.045 100.842C142.196 100.767 142.317 100.662 142.407 100.53C142.497 100.395 142.542 100.239 142.542 100.061V99.5426C142.492 99.5687 142.432 99.5923 142.361 99.6136C142.292 99.6349 142.216 99.6551 142.133 99.674C142.05 99.6929 141.965 99.7095 141.878 99.7237C141.79 99.7379 141.706 99.7509 141.626 99.7628C141.462 99.7888 141.323 99.8291 141.206 99.8835C141.093 99.938 141.005 100.009 140.944 100.097C140.885 100.182 140.855 100.284 140.855 100.402C140.855 100.582 140.919 100.719 141.047 100.814C141.177 100.909 141.341 100.956 141.54 100.956ZM147.868 104.159C147.35 104.159 146.906 104.087 146.537 103.942C146.167 103.798 145.877 103.6 145.667 103.349C145.456 103.098 145.329 102.814 145.287 102.497L146.931 102.405C146.962 102.516 147.019 102.613 147.101 102.696C147.187 102.779 147.297 102.843 147.432 102.888C147.569 102.933 147.73 102.955 147.915 102.955C148.206 102.955 148.446 102.884 148.635 102.742C148.827 102.603 148.923 102.357 148.923 102.007V101.048H148.863C148.794 101.216 148.69 101.367 148.55 101.499C148.411 101.632 148.237 101.736 148.028 101.812C147.822 101.888 147.586 101.925 147.318 101.925C146.92 101.925 146.556 101.833 146.224 101.648C145.895 101.461 145.631 101.173 145.432 100.782C145.236 100.389 145.138 99.8835 145.138 99.2656C145.138 98.6288 145.239 98.1044 145.443 97.6925C145.647 97.2782 145.913 96.9716 146.242 96.7727C146.573 96.5739 146.93 96.4744 147.311 96.4744C147.597 96.4744 147.842 96.5241 148.046 96.6236C148.252 96.7206 148.421 96.8461 148.554 97C148.686 97.1539 148.787 97.3137 148.856 97.4794H148.905V96.5455H150.635V102.021C150.635 102.483 150.519 102.872 150.287 103.19C150.055 103.507 149.73 103.747 149.314 103.911C148.897 104.076 148.415 104.159 147.868 104.159ZM147.922 100.661C148.132 100.661 148.312 100.606 148.461 100.494C148.611 100.383 148.725 100.223 148.806 100.015C148.886 99.8066 148.927 99.5568 148.927 99.2656C148.927 98.9697 148.886 98.7152 148.806 98.5021C148.728 98.2867 148.613 98.121 148.461 98.005C148.312 97.889 148.132 97.831 147.922 97.831C147.706 97.831 147.524 97.8902 147.375 98.0085C147.226 98.1269 147.112 98.2938 147.034 98.5092C146.958 98.7223 146.92 98.9744 146.92 99.2656C146.92 99.5568 146.959 99.8066 147.037 100.015C147.116 100.223 147.228 100.383 147.375 100.494C147.524 100.606 147.706 100.661 147.922 100.661ZM151.742 102V96.5455H153.429V97.5398H153.485C153.585 97.1799 153.747 96.9124 153.972 96.7372C154.197 96.5597 154.458 96.4709 154.757 96.4709C154.837 96.4709 154.92 96.4768 155.005 96.4886C155.091 96.4981 155.17 96.5135 155.243 96.5348V98.044C155.16 98.0156 155.051 97.9931 154.917 97.9766C154.784 97.96 154.666 97.9517 154.561 97.9517C154.355 97.9517 154.17 97.9979 154.004 98.0902C153.841 98.1802 153.712 98.3068 153.617 98.4702C153.525 98.6312 153.478 98.8205 153.478 99.0384V102H151.742ZM157.283 102.092C156.935 102.092 156.626 102.034 156.357 101.918C156.089 101.8 155.877 101.622 155.721 101.386C155.567 101.147 155.49 100.847 155.49 100.487C155.49 100.184 155.543 99.9285 155.65 99.7202C155.756 99.5118 155.903 99.3426 156.09 99.2124C156.277 99.0821 156.493 98.9839 156.737 98.9176C156.98 98.849 157.241 98.8028 157.518 98.7791C157.828 98.7507 158.078 98.7211 158.267 98.6903C158.456 98.6572 158.594 98.611 158.679 98.5518C158.767 98.4903 158.81 98.4039 158.81 98.2926V98.2749C158.81 98.0926 158.748 97.9517 158.622 97.8523C158.497 97.7528 158.327 97.7031 158.114 97.7031C157.885 97.7031 157.7 97.7528 157.56 97.8523C157.421 97.9517 157.332 98.089 157.294 98.2642L155.692 98.2074C155.74 97.8759 155.862 97.58 156.058 97.3196C156.257 97.0568 156.529 96.8509 156.875 96.7017C157.223 96.5502 157.641 96.4744 158.129 96.4744C158.477 96.4744 158.797 96.5159 159.091 96.5987C159.384 96.6792 159.64 96.7976 159.858 96.9538C160.076 97.1077 160.244 97.2971 160.362 97.522C160.483 97.7469 160.543 98.0038 160.543 98.2926V102H158.91V101.24H158.867C158.77 101.425 158.646 101.581 158.494 101.709C158.345 101.837 158.169 101.933 157.965 101.996C157.764 102.06 157.537 102.092 157.283 102.092ZM157.82 100.956C158.007 100.956 158.175 100.918 158.324 100.842C158.475 100.767 158.596 100.662 158.686 100.53C158.776 100.395 158.821 100.239 158.821 100.061V99.5426C158.771 99.5687 158.711 99.5923 158.64 99.6136C158.571 99.6349 158.496 99.6551 158.413 99.674C158.33 99.6929 158.245 99.7095 158.157 99.7237C158.069 99.7379 157.985 99.7509 157.905 99.7628C157.741 99.7888 157.602 99.8291 157.486 99.8835C157.372 99.938 157.285 100.009 157.223 100.097C157.164 100.182 157.134 100.284 157.134 100.402C157.134 100.582 157.198 100.719 157.326 100.814C157.456 100.909 157.621 100.956 157.82 100.956ZM161.605 102V96.5455H163.256V97.5469H163.317C163.43 97.2154 163.622 96.9538 163.892 96.7621C164.162 96.5703 164.484 96.4744 164.858 96.4744C165.237 96.4744 165.561 96.5715 165.831 96.7656C166.101 96.9598 166.272 97.2202 166.346 97.5469H166.403C166.504 97.2225 166.703 96.9633 166.999 96.7692C167.295 96.5727 167.644 96.4744 168.047 96.4744C168.563 96.4744 168.982 96.6402 169.304 96.9716C169.626 97.3007 169.787 97.7528 169.787 98.3281V102H168.05V98.7259C168.05 98.4536 167.981 98.2464 167.841 98.1044C167.701 97.96 167.52 97.8878 167.298 97.8878C167.058 97.8878 166.87 97.9659 166.733 98.1222C166.598 98.276 166.531 98.4832 166.531 98.7436V102H164.862V98.7081C164.862 98.4548 164.793 98.2547 164.656 98.108C164.518 97.9612 164.337 97.8878 164.112 97.8878C163.961 97.8878 163.827 97.9245 163.711 97.9979C163.595 98.0689 163.504 98.1707 163.438 98.3033C163.374 98.4358 163.342 98.5921 163.342 98.772V102H161.605Z" fill="url(#paint3_linear_460_6270)"/>
<circle cx="145" cy="170" r="29" fill="url(#paint4_linear_460_6270)"/>
<path d="M119.55 166.727H121.727L123.574 171.23H123.659L125.506 166.727H127.683V174H125.971V169.533H125.911L124.163 173.954H123.07L121.322 169.508H121.262V174H119.55V166.727ZM131.329 174.103C130.758 174.103 130.266 173.991 129.851 173.766C129.439 173.538 129.122 173.215 128.9 172.796C128.68 172.375 128.569 171.874 128.569 171.294C128.569 170.731 128.681 170.238 128.903 169.817C129.126 169.393 129.439 169.064 129.844 168.83C130.249 168.593 130.726 168.474 131.275 168.474C131.664 168.474 132.019 168.535 132.341 168.656C132.663 168.776 132.941 168.955 133.175 169.192C133.41 169.429 133.592 169.721 133.722 170.069C133.852 170.415 133.917 170.811 133.917 171.259V171.692H129.177V170.683H132.302C132.299 170.499 132.256 170.334 132.17 170.19C132.085 170.045 131.968 169.933 131.819 169.852C131.672 169.769 131.503 169.728 131.311 169.728C131.117 169.728 130.943 169.772 130.789 169.859C130.635 169.945 130.513 170.062 130.423 170.211C130.333 170.358 130.286 170.525 130.281 170.712V171.738C130.281 171.96 130.325 172.156 130.412 172.324C130.5 172.49 130.624 172.619 130.785 172.711C130.946 172.803 131.138 172.849 131.361 172.849C131.515 172.849 131.654 172.828 131.78 172.786C131.905 172.743 132.013 172.68 132.103 172.597C132.193 172.514 132.26 172.413 132.305 172.292L133.9 172.338C133.833 172.696 133.688 173.007 133.463 173.272C133.24 173.535 132.948 173.74 132.586 173.886C132.224 174.031 131.805 174.103 131.329 174.103ZM137.883 168.545V169.824H134.442V168.545H137.883ZM135.163 167.239H136.9V172.285C136.9 172.391 136.916 172.478 136.949 172.544C136.985 172.608 137.036 172.654 137.102 172.683C137.168 172.709 137.248 172.722 137.34 172.722C137.406 172.722 137.476 172.716 137.549 172.704C137.625 172.69 137.682 172.678 137.72 172.668L137.983 173.922C137.9 173.946 137.783 173.975 137.631 174.011C137.482 174.046 137.303 174.069 137.095 174.078C136.688 174.097 136.338 174.05 136.047 173.936C135.758 173.82 135.537 173.64 135.383 173.396C135.232 173.152 135.158 172.846 135.163 172.477V167.239ZM140.307 174.092C139.959 174.092 139.65 174.034 139.38 173.918C139.112 173.8 138.901 173.622 138.744 173.386C138.59 173.147 138.513 172.847 138.513 172.487C138.513 172.184 138.567 171.929 138.673 171.72C138.78 171.512 138.927 171.343 139.114 171.212C139.301 171.082 139.516 170.984 139.76 170.918C140.004 170.849 140.264 170.803 140.541 170.779C140.851 170.751 141.101 170.721 141.29 170.69C141.48 170.657 141.617 170.611 141.702 170.552C141.79 170.49 141.834 170.404 141.834 170.293V170.275C141.834 170.093 141.771 169.952 141.646 169.852C141.52 169.753 141.351 169.703 141.138 169.703C140.908 169.703 140.723 169.753 140.584 169.852C140.444 169.952 140.355 170.089 140.317 170.264L138.716 170.207C138.763 169.876 138.885 169.58 139.082 169.32C139.281 169.057 139.553 168.851 139.898 168.702C140.246 168.55 140.664 168.474 141.152 168.474C141.5 168.474 141.821 168.516 142.114 168.599C142.408 168.679 142.664 168.798 142.881 168.954C143.099 169.108 143.267 169.297 143.386 169.522C143.506 169.747 143.567 170.004 143.567 170.293V174H141.933V173.24H141.891C141.794 173.425 141.669 173.581 141.518 173.709C141.369 173.837 141.192 173.933 140.989 173.996C140.787 174.06 140.56 174.092 140.307 174.092ZM140.843 172.956C141.03 172.956 141.198 172.918 141.347 172.842C141.499 172.767 141.62 172.662 141.71 172.53C141.799 172.395 141.844 172.239 141.844 172.061V171.543C141.795 171.569 141.734 171.592 141.663 171.614C141.595 171.635 141.519 171.655 141.436 171.674C141.353 171.693 141.268 171.71 141.18 171.724C141.093 171.738 141.009 171.751 140.928 171.763C140.765 171.789 140.625 171.829 140.509 171.884C140.396 171.938 140.308 172.009 140.246 172.097C140.187 172.182 140.158 172.284 140.158 172.402C140.158 172.582 140.222 172.719 140.349 172.814C140.48 172.909 140.644 172.956 140.843 172.956ZM150.708 168.908C150.684 168.647 150.579 168.445 150.392 168.3C150.207 168.154 149.943 168.08 149.6 168.08C149.373 168.08 149.183 168.11 149.032 168.169C148.88 168.228 148.767 168.31 148.691 168.414C148.615 168.516 148.576 168.633 148.574 168.766C148.569 168.875 148.59 168.97 148.638 169.053C148.688 169.136 148.759 169.21 148.851 169.273C148.946 169.335 149.059 169.389 149.192 169.437C149.324 169.484 149.473 169.526 149.639 169.561L150.264 169.703C150.624 169.781 150.941 169.885 151.216 170.016C151.493 170.146 151.725 170.301 151.912 170.481C152.101 170.661 152.245 170.868 152.342 171.102C152.439 171.337 152.488 171.599 152.491 171.891C152.488 172.35 152.372 172.744 152.143 173.073C151.913 173.402 151.583 173.654 151.152 173.83C150.723 174.005 150.206 174.092 149.6 174.092C148.992 174.092 148.461 174.001 148.009 173.819C147.557 173.637 147.205 173.36 146.955 172.988C146.704 172.616 146.575 172.146 146.567 171.578H148.251C148.265 171.812 148.328 172.008 148.439 172.164C148.55 172.32 148.703 172.439 148.897 172.519C149.094 172.6 149.321 172.64 149.579 172.64C149.816 172.64 150.017 172.608 150.183 172.544C150.351 172.48 150.48 172.391 150.57 172.278C150.66 172.164 150.706 172.034 150.708 171.887C150.706 171.75 150.663 171.633 150.58 171.536C150.497 171.436 150.37 171.351 150.197 171.28C150.026 171.206 149.808 171.139 149.543 171.077L148.783 170.9C148.154 170.755 147.658 170.522 147.295 170.2C146.933 169.876 146.753 169.438 146.756 168.886C146.753 168.437 146.874 168.042 147.118 167.704C147.362 167.365 147.699 167.101 148.13 166.912C148.561 166.723 149.052 166.628 149.604 166.628C150.167 166.628 150.656 166.724 151.07 166.915C151.487 167.105 151.81 167.371 152.04 167.714C152.269 168.058 152.387 168.455 152.391 168.908H150.708ZM156.898 171.646V168.545H158.631V174H156.976V172.984H156.919C156.798 173.318 156.592 173.583 156.301 173.78C156.012 173.974 155.663 174.071 155.254 174.071C154.882 174.071 154.555 173.986 154.273 173.815C153.992 173.645 153.773 173.407 153.616 173.102C153.46 172.794 153.381 172.434 153.379 172.022V168.545H155.115V171.681C155.117 171.977 155.196 172.21 155.349 172.381C155.503 172.551 155.713 172.636 155.978 172.636C156.151 172.636 156.306 172.598 156.443 172.523C156.583 172.445 156.693 172.332 156.773 172.185C156.856 172.036 156.898 171.856 156.898 171.646ZM159.736 174V168.545H161.472V174H159.736ZM160.606 167.91C160.362 167.91 160.153 167.829 159.977 167.668C159.802 167.505 159.715 167.308 159.715 167.079C159.715 166.852 159.802 166.657 159.977 166.496C160.153 166.333 160.362 166.251 160.606 166.251C160.852 166.251 161.062 166.333 161.235 166.496C161.41 166.657 161.497 166.852 161.497 167.079C161.497 167.308 161.41 167.505 161.235 167.668C161.062 167.829 160.852 167.91 160.606 167.91ZM165.657 168.545V169.824H162.216V168.545H165.657ZM162.936 167.239H164.673V172.285C164.673 172.391 164.69 172.478 164.723 172.544C164.758 172.608 164.809 172.654 164.875 172.683C164.942 172.709 165.021 172.722 165.113 172.722C165.18 172.722 165.249 172.716 165.323 172.704C165.399 172.69 165.455 172.678 165.493 172.668L165.756 173.922C165.673 173.946 165.556 173.975 165.404 174.011C165.255 174.046 165.077 174.069 164.868 174.078C164.461 174.097 164.112 174.05 163.821 173.936C163.532 173.82 163.31 173.64 163.157 173.396C163.005 173.152 162.932 172.846 162.936 172.477V167.239ZM169.034 174.103C168.463 174.103 167.971 173.991 167.556 173.766C167.145 173.538 166.827 173.215 166.605 172.796C166.385 172.375 166.275 171.874 166.275 171.294C166.275 170.731 166.386 170.238 166.608 169.817C166.831 169.393 167.145 169.064 167.549 168.83C167.954 168.593 168.431 168.474 168.98 168.474C169.369 168.474 169.724 168.535 170.046 168.656C170.368 168.776 170.646 168.955 170.88 169.192C171.115 169.429 171.297 169.721 171.427 170.069C171.557 170.415 171.623 170.811 171.623 171.259V171.692H166.882V170.683H170.007C170.004 170.499 169.961 170.334 169.875 170.19C169.79 170.045 169.673 169.933 169.524 169.852C169.377 169.769 169.208 169.728 169.016 169.728C168.822 169.728 168.648 169.772 168.494 169.859C168.34 169.945 168.218 170.062 168.128 170.211C168.038 170.358 167.991 170.525 167.986 170.712V171.738C167.986 171.96 168.03 172.156 168.118 172.324C168.205 172.49 168.329 172.619 168.49 172.711C168.651 172.803 168.843 172.849 169.066 172.849C169.22 172.849 169.359 172.828 169.485 172.786C169.61 172.743 169.718 172.68 169.808 172.597C169.898 172.514 169.965 172.413 170.01 172.292L171.605 172.338C171.538 172.696 171.393 173.007 171.168 173.272C170.945 173.535 170.653 173.74 170.291 173.886C169.929 174.031 169.51 174.103 169.034 174.103Z" fill="url(#paint5_linear_460_6270)"/>
<circle cx="29" cy="170" r="29" fill="url(#paint6_linear_460_6270)"/>
<path d="M6.55043 166.727H8.72727L10.5739 171.23H10.6591L12.5057 166.727H14.6825V174H12.9709V169.533H12.9105L11.1634 173.954H10.0696L8.32244 169.508H8.26207V174H6.55043V166.727ZM18.3287 174.103C17.7581 174.103 17.2657 173.991 16.8514 173.766C16.4395 173.538 16.1222 173.215 15.8997 172.796C15.6795 172.375 15.5694 171.874 15.5694 171.294C15.5694 170.731 15.6807 170.238 15.9032 169.817C16.1258 169.393 16.4395 169.064 16.8443 168.83C17.2491 168.593 17.7261 168.474 18.2754 168.474C18.6636 168.474 19.0188 168.535 19.3407 168.656C19.6627 168.776 19.9409 168.955 20.1752 169.192C20.4096 169.429 20.5919 169.721 20.7221 170.069C20.8523 170.415 20.9174 170.811 20.9174 171.259V171.692H16.1767V170.683H19.3017C19.2993 170.499 19.2555 170.334 19.1703 170.19C19.085 170.045 18.9679 169.933 18.8187 169.852C18.6719 169.769 18.5027 169.728 18.3109 169.728C18.1168 169.728 17.9428 169.772 17.7889 169.859C17.635 169.945 17.5131 170.062 17.4231 170.211C17.3332 170.358 17.2858 170.525 17.2811 170.712V171.738C17.2811 171.96 17.3249 172.156 17.4125 172.324C17.5001 172.49 17.6243 172.619 17.7853 172.711C17.9463 172.803 18.1381 172.849 18.3606 172.849C18.5145 172.849 18.6542 172.828 18.7797 172.786C18.9051 172.743 19.0128 172.68 19.1028 172.597C19.1928 172.514 19.2602 172.413 19.3052 172.292L20.8997 172.338C20.8334 172.696 20.6878 173.007 20.4629 173.272C20.2404 173.535 19.948 173.74 19.5858 173.886C19.2235 174.031 18.8045 174.103 18.3287 174.103ZM24.8832 168.545V169.824H21.4421V168.545H24.8832ZM22.163 167.239H23.8995V172.285C23.8995 172.391 23.9161 172.478 23.9492 172.544C23.9847 172.608 24.0356 172.654 24.1019 172.683C24.1682 172.709 24.2475 172.722 24.3398 172.722C24.4061 172.722 24.476 172.716 24.5494 172.704C24.6251 172.69 24.6819 172.678 24.7198 172.668L24.9826 173.922C24.8997 173.946 24.7826 173.975 24.631 174.011C24.4819 174.046 24.3031 174.069 24.0948 174.078C23.6876 174.097 23.3384 174.05 23.0472 173.936C22.7584 173.82 22.5371 173.64 22.3832 173.396C22.2317 173.152 22.1583 172.846 22.163 172.477V167.239ZM27.3068 174.092C26.9588 174.092 26.6499 174.034 26.38 173.918C26.1125 173.8 25.9006 173.622 25.7443 173.386C25.5904 173.147 25.5135 172.847 25.5135 172.487C25.5135 172.184 25.5668 171.929 25.6733 171.72C25.7798 171.512 25.9266 171.343 26.1136 171.212C26.3007 171.082 26.5161 170.984 26.7599 170.918C27.0038 170.849 27.2642 170.803 27.5412 170.779C27.8513 170.751 28.1011 170.721 28.2905 170.69C28.4799 170.657 28.6172 170.611 28.7024 170.552C28.79 170.49 28.8338 170.404 28.8338 170.293V170.275C28.8338 170.093 28.7711 169.952 28.6456 169.852C28.5201 169.753 28.3509 169.703 28.1378 169.703C27.9081 169.703 27.7235 169.753 27.5838 169.852C27.4441 169.952 27.3554 170.089 27.3175 170.264L25.7159 170.207C25.7633 169.876 25.8852 169.58 26.0817 169.32C26.2805 169.057 26.5528 168.851 26.8984 168.702C27.2464 168.55 27.6643 168.474 28.152 168.474C28.5 168.474 28.8208 168.516 29.1143 168.599C29.4079 168.679 29.6636 168.798 29.8814 168.954C30.0992 169.108 30.2673 169.297 30.3857 169.522C30.5064 169.747 30.5668 170.004 30.5668 170.293V174H28.9332V173.24H28.8906C28.7936 173.425 28.6693 173.581 28.5178 173.709C28.3686 173.837 28.1922 173.933 27.9886 173.996C27.7874 174.06 27.5601 174.092 27.3068 174.092ZM27.843 172.956C28.0301 172.956 28.1982 172.918 28.3473 172.842C28.4988 172.767 28.6196 172.662 28.7095 172.53C28.7995 172.395 28.8445 172.239 28.8445 172.061V171.543C28.7947 171.569 28.7344 171.592 28.6634 171.614C28.5947 171.635 28.5189 171.655 28.4361 171.674C28.3532 171.693 28.268 171.71 28.1804 171.724C28.0928 171.738 28.0088 171.751 27.9283 171.763C27.7649 171.789 27.6252 171.829 27.5092 171.884C27.3956 171.938 27.308 172.009 27.2464 172.097C27.1873 172.182 27.1577 172.284 27.1577 172.402C27.1577 172.582 27.2216 172.719 27.3494 172.814C27.4796 172.909 27.6442 172.956 27.843 172.956ZM35.3501 174H33.4609L35.9148 166.727H38.255L40.7088 174H38.8196L37.1115 168.56H37.0547L35.3501 174ZM35.098 171.138H39.0469V172.473H35.098V171.138ZM43.1422 174.078C42.7398 174.078 42.374 173.974 42.0449 173.766C41.7158 173.557 41.4531 173.245 41.2566 172.828C41.0601 172.411 40.9618 171.894 40.9618 171.276C40.9618 170.635 41.0636 170.107 41.2672 169.692C41.4708 169.278 41.7372 168.972 42.0662 168.773C42.3977 168.574 42.754 168.474 43.1351 168.474C43.4216 168.474 43.6666 168.524 43.8702 168.624C44.0738 168.721 44.2419 168.846 44.3745 169C44.507 169.154 44.6077 169.314 44.6763 169.479H44.7118V166.727H46.4483V174H44.7296V173.116H44.6763C44.6029 173.284 44.4988 173.441 44.3638 173.588C44.2289 173.735 44.0596 173.853 43.856 173.943C43.6548 174.033 43.4168 174.078 43.1422 174.078ZM43.7459 172.725C43.9566 172.725 44.1365 172.666 44.2857 172.548C44.4348 172.427 44.5497 172.258 44.6301 172.04C44.7106 171.822 44.7509 171.566 44.7509 171.273C44.7509 170.974 44.7106 170.718 44.6301 170.502C44.552 170.287 44.4372 170.121 44.2857 170.005C44.1365 169.889 43.9566 169.831 43.7459 169.831C43.5305 169.831 43.3482 169.89 43.199 170.009C43.0499 170.127 42.9363 170.294 42.8581 170.509C42.7824 170.725 42.7445 170.979 42.7445 171.273C42.7445 171.566 42.7836 171.822 42.8617 172.04C42.9398 172.258 43.0523 172.427 43.199 172.548C43.3482 172.666 43.5305 172.725 43.7459 172.725ZM52.3086 170.211L50.7141 170.254C50.6976 170.14 50.6526 170.039 50.5792 169.952C50.5058 169.862 50.4099 169.792 50.2915 169.742C50.1755 169.69 50.0406 169.664 49.8867 169.664C49.6855 169.664 49.5138 169.704 49.3718 169.785C49.2321 169.865 49.1635 169.974 49.1658 170.112C49.1635 170.218 49.2061 170.31 49.2937 170.388C49.3836 170.467 49.5434 170.529 49.7731 170.577L50.8242 170.776C51.3687 170.88 51.7736 171.053 52.0387 171.294C52.3062 171.536 52.4412 171.855 52.4435 172.253C52.4412 172.627 52.3299 172.952 52.1097 173.229C51.8919 173.506 51.5936 173.722 51.2148 173.876C50.8361 174.027 50.4028 174.103 49.9151 174.103C49.1362 174.103 48.5219 173.943 48.0721 173.624C47.6246 173.302 47.369 172.871 47.305 172.331L49.0202 172.288C49.0581 172.487 49.1564 172.639 49.315 172.743C49.4736 172.847 49.676 172.899 49.9222 172.899C50.1448 172.899 50.3259 172.858 50.4656 172.775C50.6052 172.692 50.6763 172.582 50.6786 172.445C50.6763 172.321 50.6218 172.223 50.5153 172.15C50.4087 172.074 50.2418 172.015 50.0146 171.972L49.0629 171.791C48.516 171.692 48.1088 171.508 47.8413 171.241C47.5737 170.971 47.4412 170.628 47.4435 170.211C47.4412 169.846 47.5382 169.535 47.7347 169.277C47.9312 169.017 48.2106 168.818 48.5728 168.68C48.935 168.543 49.3623 168.474 49.8548 168.474C50.5934 168.474 51.1758 168.629 51.6019 168.94C52.0281 169.247 52.2636 169.671 52.3086 170.211Z" fill="url(#paint7_linear_460_6270)"/>
<circle cx="29" cy="98" r="29" fill="url(#paint8_linear_460_6270)"/>
<path d="M5.55043 102V94.7273H10.5149V96.1548H7.30824V97.6463H10.1989V99.0774H7.30824V102H5.55043ZM12.8498 102.092C12.5018 102.092 12.1928 102.034 11.9229 101.918C11.6554 101.8 11.4435 101.622 11.2873 101.386C11.1334 101.147 11.0565 100.847 11.0565 100.487C11.0565 100.184 11.1097 99.9285 11.2163 99.7202C11.3228 99.5118 11.4696 99.3426 11.6566 99.2124C11.8436 99.0821 12.0591 98.9839 12.3029 98.9176C12.5468 98.849 12.8072 98.8028 13.0842 98.7791C13.3943 98.7507 13.6441 98.7211 13.8335 98.6903C14.0228 98.6572 14.1602 98.611 14.2454 98.5518C14.333 98.4903 14.3768 98.4039 14.3768 98.2926V98.2749C14.3768 98.0926 14.314 97.9517 14.1886 97.8523C14.0631 97.7528 13.8938 97.7031 13.6808 97.7031C13.4511 97.7031 13.2665 97.7528 13.1268 97.8523C12.9871 97.9517 12.8983 98.089 12.8604 98.2642L11.2589 98.2074C11.3062 97.8759 11.4281 97.58 11.6246 97.3196C11.8235 97.0568 12.0958 96.8509 12.4414 96.7017C12.7894 96.5502 13.2073 96.4744 13.695 96.4744C14.043 96.4744 14.3638 96.5159 14.6573 96.5987C14.9509 96.6792 15.2066 96.7976 15.4244 96.9538C15.6422 97.1077 15.8103 97.2971 15.9286 97.522C16.0494 97.7469 16.1097 98.0038 16.1097 98.2926V102H14.4762V101.24H14.4336C14.3365 101.425 14.2122 101.581 14.0607 101.709C13.9116 101.837 13.7352 101.933 13.5316 101.996C13.3304 102.06 13.1031 102.092 12.8498 102.092ZM13.386 100.956C13.573 100.956 13.7411 100.918 13.8903 100.842C14.0418 100.767 14.1625 100.662 14.2525 100.53C14.3424 100.395 14.3874 100.239 14.3874 100.061V99.5426C14.3377 99.5687 14.2773 99.5923 14.2063 99.6136C14.1377 99.6349 14.0619 99.6551 13.979 99.674C13.8962 99.6929 13.811 99.7095 13.7234 99.7237C13.6358 99.7379 13.5517 99.7509 13.4712 99.7628C13.3079 99.7888 13.1682 99.8291 13.0522 99.8835C12.9386 99.938 12.851 100.009 12.7894 100.097C12.7302 100.182 12.7006 100.284 12.7006 100.402C12.7006 100.582 12.7646 100.719 12.8924 100.814C13.0226 100.909 13.1871 100.956 13.386 100.956ZM19.7177 102.103C19.1424 102.103 18.6488 101.985 18.2369 101.748C17.8273 101.511 17.5124 101.182 17.2923 100.761C17.0721 100.337 16.962 99.8468 16.962 99.2905C16.962 98.7318 17.0721 98.2417 17.2923 97.8203C17.5148 97.3965 17.8308 97.0663 18.2404 96.8295C18.6523 96.5928 19.1436 96.4744 19.7141 96.4744C20.2184 96.4744 20.6576 96.5656 21.0316 96.7479C21.408 96.9302 21.7016 97.1882 21.9123 97.522C22.1254 97.8535 22.2378 98.2429 22.2496 98.6903H20.6268C20.5936 98.411 20.4989 98.192 20.3427 98.0334C20.1888 97.8748 19.9876 97.7955 19.739 97.7955C19.5378 97.7955 19.3614 97.8523 19.2099 97.9659C19.0584 98.0772 18.94 98.2429 18.8548 98.4631C18.7719 98.6809 18.7305 98.9508 18.7305 99.2727C18.7305 99.5947 18.7719 99.867 18.8548 100.089C18.94 100.31 19.0584 100.477 19.2099 100.59C19.3614 100.701 19.5378 100.757 19.739 100.757C19.9 100.757 20.042 100.723 20.1651 100.654C20.2906 100.585 20.3936 100.485 20.4741 100.352C20.5546 100.217 20.6055 100.054 20.6268 99.8622H22.2496C22.2331 100.312 22.1206 100.705 21.9123 101.041C21.7063 101.377 21.4163 101.639 21.0423 101.826C20.6706 102.011 20.229 102.103 19.7177 102.103ZM25.688 102.103C25.1175 102.103 24.6251 101.991 24.2108 101.766C23.7988 101.538 23.4816 101.215 23.2591 100.796C23.0389 100.375 22.9288 99.8741 22.9288 99.294C22.9288 98.7306 23.0401 98.2382 23.2626 97.8168C23.4851 97.393 23.7988 97.0639 24.2037 96.8295C24.6085 96.5928 25.0855 96.4744 25.6348 96.4744C26.023 96.4744 26.3781 96.5348 26.7001 96.6555C27.0221 96.7763 27.3002 96.955 27.5346 97.1918C27.769 97.4285 27.9513 97.7209 28.0815 98.0689C28.2117 98.4145 28.2768 98.8111 28.2768 99.2585V99.6918H23.536V98.6832H26.661C26.6587 98.4986 26.6149 98.334 26.5297 98.1896C26.4444 98.0452 26.3272 97.9328 26.1781 97.8523C26.0313 97.7694 25.862 97.728 25.6703 97.728C25.4761 97.728 25.3021 97.7718 25.1483 97.8594C24.9944 97.9446 24.8725 98.0618 24.7825 98.2109C24.6925 98.3577 24.6452 98.5246 24.6404 98.7116V99.7379C24.6404 99.9605 24.6842 100.156 24.7718 100.324C24.8594 100.49 24.9837 100.619 25.1447 100.711C25.3057 100.803 25.4975 100.849 25.72 100.849C25.8739 100.849 26.0136 100.828 26.139 100.786C26.2645 100.743 26.3722 100.68 26.4622 100.597C26.5521 100.514 26.6196 100.413 26.6646 100.292L28.2591 100.338C28.1928 100.696 28.0472 101.007 27.8223 101.272C27.5997 101.535 27.3074 101.74 26.9451 101.886C26.5829 102.031 26.1639 102.103 25.688 102.103ZM29.1637 102V94.7273H30.9002V97.4794H30.9357C31.0067 97.3137 31.1074 97.1539 31.2376 97C31.3701 96.8461 31.5382 96.7206 31.7418 96.6236C31.9478 96.5241 32.194 96.4744 32.4805 96.4744C32.8593 96.4744 33.2132 96.5739 33.5423 96.7727C33.8737 96.9716 34.1412 97.2782 34.3448 97.6925C34.5484 98.1068 34.6502 98.6347 34.6502 99.2763C34.6502 99.8942 34.552 100.411 34.3555 100.828C34.1613 101.245 33.8986 101.557 33.5671 101.766C33.238 101.974 32.8723 102.078 32.4698 102.078C32.1952 102.078 31.9573 102.033 31.756 101.943C31.5548 101.853 31.3855 101.735 31.2482 101.588C31.1133 101.441 31.0091 101.284 30.9357 101.116H30.8825V102H29.1637ZM30.8647 99.2727C30.8647 99.5663 30.9038 99.822 30.9819 100.04C31.0624 100.258 31.1772 100.427 31.3263 100.548C31.4779 100.666 31.659 100.725 31.8697 100.725C32.0827 100.725 32.2638 100.666 32.413 100.548C32.5621 100.427 32.6746 100.258 32.7504 100.04C32.8285 99.822 32.8675 99.5663 32.8675 99.2727C32.8675 98.9792 32.8285 98.7247 32.7504 98.5092C32.6746 98.2938 32.5621 98.1269 32.413 98.0085C32.2662 97.8902 32.0851 97.831 31.8697 97.831C31.6566 97.831 31.4755 97.889 31.3263 98.005C31.1772 98.121 31.0624 98.2867 30.9819 98.5021C30.9038 98.7176 30.8647 98.9744 30.8647 99.2727ZM38.1064 102.103C37.5334 102.103 37.041 101.986 36.6291 101.751C36.2195 101.515 35.9035 101.186 35.6809 100.764C35.4608 100.34 35.3507 99.8492 35.3507 99.2905C35.3507 98.7294 35.4608 98.2382 35.6809 97.8168C35.9035 97.393 36.2195 97.0639 36.6291 96.8295C37.041 96.5928 37.5334 96.4744 38.1064 96.4744C38.6793 96.4744 39.1705 96.5928 39.5801 96.8295C39.992 97.0639 40.3081 97.393 40.5282 97.8168C40.7508 98.2382 40.862 98.7294 40.862 99.2905C40.862 99.8492 40.7508 100.34 40.5282 100.764C40.3081 101.186 39.992 101.515 39.5801 101.751C39.1705 101.986 38.6793 102.103 38.1064 102.103ZM38.117 100.793C38.3253 100.793 38.5017 100.729 38.6461 100.601C38.7905 100.473 38.9006 100.295 38.9764 100.068C39.0545 99.8409 39.0936 99.5781 39.0936 99.2798C39.0936 98.9768 39.0545 98.7116 38.9764 98.4844C38.9006 98.2571 38.7905 98.0795 38.6461 97.9517C38.5017 97.8239 38.3253 97.7599 38.117 97.7599C37.9016 97.7599 37.7193 97.8239 37.5701 97.9517C37.4234 98.0795 37.3109 98.2571 37.2328 98.4844C37.157 98.7116 37.1191 98.9768 37.1191 99.2798C37.1191 99.5781 37.157 99.8409 37.2328 100.068C37.3109 100.295 37.4234 100.473 37.5701 100.601C37.7193 100.729 37.9016 100.793 38.117 100.793ZM44.2978 102.103C43.7248 102.103 43.2324 101.986 42.8205 101.751C42.4109 101.515 42.0949 101.186 41.8723 100.764C41.6522 100.34 41.5421 99.8492 41.5421 99.2905C41.5421 98.7294 41.6522 98.2382 41.8723 97.8168C42.0949 97.393 42.4109 97.0639 42.8205 96.8295C43.2324 96.5928 43.7248 96.4744 44.2978 96.4744C44.8707 96.4744 45.3619 96.5928 45.7715 96.8295C46.1834 97.0639 46.4995 97.393 46.7196 97.8168C46.9422 98.2382 47.0534 98.7294 47.0534 99.2905C47.0534 99.8492 46.9422 100.34 46.7196 100.764C46.4995 101.186 46.1834 101.515 45.7715 101.751C45.3619 101.986 44.8707 102.103 44.2978 102.103ZM44.3084 100.793C44.5167 100.793 44.6931 100.729 44.8375 100.601C44.9819 100.473 45.092 100.295 45.1678 100.068C45.2459 99.8409 45.285 99.5781 45.285 99.2798C45.285 98.9768 45.2459 98.7116 45.1678 98.4844C45.092 98.2571 44.9819 98.0795 44.8375 97.9517C44.6931 97.8239 44.5167 97.7599 44.3084 97.7599C44.093 97.7599 43.9107 97.8239 43.7615 97.9517C43.6148 98.0795 43.5023 98.2571 43.4242 98.4844C43.3484 98.7116 43.3105 98.9768 43.3105 99.2798C43.3105 99.5781 43.3484 99.8409 43.4242 100.068C43.5023 100.295 43.6148 100.473 43.7615 100.601C43.9107 100.729 44.093 100.793 44.3084 100.793ZM49.5091 100.569L49.5162 98.4986H49.7576L51.2917 96.5455H53.2591L50.9792 99.3438H50.5211L49.5091 100.569ZM47.943 102V94.7273H49.6795V102H47.943ZM51.3308 102L49.9032 99.7344L51.0467 98.5021L53.3372 102H51.3308Z" fill="url(#paint9_linear_460_6270)"/>
<path d="M108 52L129 73" stroke="#404040" stroke-linecap="round" stroke-dasharray="2 2"/>
<path d="M146 128L146 141" stroke="#404040" stroke-linecap="round" stroke-dasharray="2 2"/>
<path d="M30 128L30 141" stroke="#404040" stroke-linecap="round" stroke-dasharray="2 2"/>
<path d="M68 50L47 71" stroke="#404040" stroke-linecap="round" stroke-dasharray="2 2"/>
<defs>
<linearGradient id="paint0_linear_460_6270" x1="60" y1="0" x2="130.06" y2="31.6422" gradientUnits="userSpaceOnUse">
<stop stop-color="#F3F3F3" stop-opacity="0.47"/>
<stop offset="1" stop-color="#1E1E1E" stop-opacity="0.39"/>
</linearGradient>
<linearGradient id="paint1_linear_460_6270" x1="66" y1="17" x2="104.352" y2="50.9208" gradientUnits="userSpaceOnUse">
<stop stop-color="#F3F3F3" stop-opacity="0.47"/>
<stop offset="1" stop-color="#1E1E1E" stop-opacity="0.39"/>
</linearGradient>
<linearGradient id="paint2_linear_460_6270" x1="116" y1="69" x2="186.06" y2="100.642" gradientUnits="userSpaceOnUse">
<stop stop-color="#F3F3F3" stop-opacity="0.47"/>
<stop offset="1" stop-color="#1E1E1E" stop-opacity="0.39"/>
</linearGradient>
<linearGradient id="paint3_linear_460_6270" x1="120" y1="91" x2="142.088" y2="124.918" gradientUnits="userSpaceOnUse">
<stop stop-color="#F3F3F3" stop-opacity="0.47"/>
<stop offset="1" stop-color="#1E1E1E" stop-opacity="0.39"/>
</linearGradient>
<linearGradient id="paint4_linear_460_6270" x1="116" y1="141" x2="186.06" y2="172.642" gradientUnits="userSpaceOnUse">
<stop stop-color="#F3F3F3" stop-opacity="0.47"/>
<stop offset="1" stop-color="#1E1E1E" stop-opacity="0.39"/>
</linearGradient>
<linearGradient id="paint5_linear_460_6270" x1="119" y1="163" x2="140.733" y2="197.682" gradientUnits="userSpaceOnUse">
<stop stop-color="#F3F3F3" stop-opacity="0.47"/>
<stop offset="1" stop-color="#1E1E1E" stop-opacity="0.39"/>
</linearGradient>
<linearGradient id="paint6_linear_460_6270" x1="0" y1="141" x2="70.0603" y2="172.642" gradientUnits="userSpaceOnUse">
<stop stop-color="#F3F3F3" stop-opacity="0.47"/>
<stop offset="1" stop-color="#1E1E1E" stop-opacity="0.39"/>
</linearGradient>
<linearGradient id="paint7_linear_460_6270" x1="6" y1="163" x2="28.7645" y2="195.215" gradientUnits="userSpaceOnUse">
<stop stop-color="#F3F3F3" stop-opacity="0.47"/>
<stop offset="1" stop-color="#1E1E1E" stop-opacity="0.39"/>
</linearGradient>
<linearGradient id="paint8_linear_460_6270" x1="0" y1="69" x2="70.0603" y2="100.642" gradientUnits="userSpaceOnUse">
<stop stop-color="#F3F3F3" stop-opacity="0.47"/>
<stop offset="1" stop-color="#1E1E1E" stop-opacity="0.39"/>
</linearGradient>
<linearGradient id="paint9_linear_460_6270" x1="5" y1="91" x2="27.4328" y2="124.097" gradientUnits="userSpaceOnUse">
<stop stop-color="#F3F3F3" stop-opacity="0.47"/>
<stop offset="1" stop-color="#1E1E1E" stop-opacity="0.39"/>
</linearGradient>
</defs>
</svg>
